<?xml version="1.0" standalone="no"?>
<!DOCTYPE svg PUBLIC "-//W3C//DTD SVG 20010904//EN"
 "http://www.w3.org/TR/2001/REC-SVG-20010904/DTD/svg10.dtd">
<svg version="1.0" xmlns="http://www.w3.org/2000/svg"
 width="6488.000000pt" height="6488.000000pt" viewBox="0 0 6488.000000 6488.000000"
 preserveAspectRatio="xMidYMid meet">
<metadata>
Created by potrace 1.15, written by Peter Selinger 2001-2017
</metadata>
<g transform="translate(0.000000,6488.000000) scale(0.100000,-0.100000)"
fill="#000000" stroke="none">
<path d="M32634 57009 c-3 -6 -1 -14 5 -18 14 -9 26 -100 17 -135 -4 -15 -18
-36 -31 -48 -14 -12 -25 -28 -25 -37 0 -43 -80 -110 -118 -99 -5 2 -18 -6 -28
-17 -17 -18 -64 -36 -140 -52 -32 -7 -70 50 -58 86 7 20 16 26 37 26 19 -1 26
3 23 12 -6 15 20 18 29 3 12 -19 32 1 27 27 l-5 26 22 -22 c24 -24 41 -27 59
-9 18 18 14 28 -11 28 -13 0 -38 14 -55 31 -29 29 -32 30 -32 10 0 -14 -8 -23
-27 -27 -16 -4 -33 -13 -39 -20 -9 -11 -18 -12 -38 -5 -14 6 -33 8 -42 4 -10
-4 -17 1 -21 16 -3 11 -9 19 -13 16 -5 -3 -11 -1 -15 5 -12 19 -22 10 -17 -16
4 -20 1 -25 -9 -22 -8 3 -15 18 -16 34 -1 16 -4 40 -6 54 -2 14 -5 29 -6 33 0
5 -6 5 -12 1 -6 -3 -14 -3 -18 2 -3 5 -19 15 -35 22 -28 12 -28 12 -24 -13 4
-16 1 -24 -6 -22 -6 2 -12 14 -14 26 -3 19 -8 22 -30 16 -34 -8 -52 -23 -52
-42 0 -24 -35 -10 -36 14 -1 13 2 20 7 18 4 -3 10 -1 14 5 10 17 -23 23 -55
10 -17 -7 -34 -19 -39 -28 -6 -10 -26 -15 -67 -16 -33 -1 -64 -5 -71 -9 -6 -4
-13 -2 -15 5 -5 15 -28 1 -28 -16 0 -29 -42 -106 -71 -130 -27 -23 -30 -31
-28 -71 2 -24 0 -47 -3 -50 -8 -8 -34 -13 -70 -14 -22 -1 -26 -5 -21 -18 3
-10 12 -25 18 -33 16 -19 16 -67 0 -80 -9 -7 -21 -7 -41 1 -58 23 -73 32 -68
40 3 5 -2 6 -10 3 -16 -6 -21 5 -16 36 1 8 -1 12 -5 8 -4 -4 -15 0 -24 9 -15
16 -16 15 -19 -5 -4 -24 -36 -47 -52 -37 -6 3 -10 -1 -10 -9 0 -9 8 -16 19
-16 11 0 23 -4 26 -10 3 -6 -1 -7 -10 -4 -8 4 -22 1 -30 -6 -10 -9 -15 -9 -15
-1 0 6 -13 11 -29 11 -16 0 -37 7 -46 16 -12 13 -27 15 -61 10 -24 -3 -44 -4
-44 -1 0 2 10 13 22 25 l22 20 -21 0 c-12 0 -23 -5 -25 -11 -2 -6 -30 -12 -63
-15 -34 -2 -64 -10 -70 -17 -5 -8 -27 -17 -47 -21 -32 -6 -38 -4 -38 10 0 11
-5 14 -17 10 -13 -4 -12 -1 5 13 12 11 22 29 22 40 0 27 -17 27 -25 1 -3 -11
-11 -20 -16 -20 -5 0 -8 -6 -7 -12 2 -8 -6 -12 -20 -11 -26 3 -64 -26 -55 -41
3 -6 -5 -1 -19 12 -13 12 -28 22 -33 22 -5 0 0 -6 10 -14 16 -12 17 -16 6 -30
-12 -14 -11 -19 4 -36 16 -18 16 -20 2 -20 -10 0 -17 7 -17 16 0 11 -6 15 -20
11 -11 -3 -20 -2 -20 3 0 4 -6 10 -14 13 -11 5 -13 -2 -10 -29 3 -26 1 -34
-12 -34 -12 0 -15 6 -11 21 5 18 2 20 -21 16 -32 -6 -52 1 -52 19 0 8 -10 14
-25 14 -15 0 -29 9 -36 22 -8 14 -14 18 -17 10 -5 -17 -22 -15 -22 3 0 8 8 15
18 15 16 1 16 1 -1 11 -14 8 -22 7 -33 -8 -9 -10 -13 -13 -10 -8 2 6 1 17 -4
25 -7 11 -11 11 -24 1 -11 -9 -16 -10 -16 -2 0 6 -9 11 -20 11 -12 0 -17 -5
-14 -14 3 -7 -2 -16 -11 -20 -13 -5 -15 -1 -10 14 5 15 2 20 -14 20 -11 0 -23
5 -26 10 -10 17 -23 11 -18 -8 3 -13 -4 -22 -24 -31 -15 -7 -43 -30 -61 -52
-42 -49 -67 -62 -110 -61 -43 2 -72 -13 -72 -38 0 -24 18 -36 33 -21 6 6 14
11 19 11 4 0 -4 -11 -18 -25 -28 -28 -40 -31 -38 -9 1 9 -7 14 -23 14 -19 0
-23 4 -19 18 4 11 1 19 -6 19 -7 0 -23 3 -35 7 -21 7 -23 4 -25 -36 0 -24 -2
-47 -3 -53 -2 -5 -3 -20 -4 -32 -1 -19 -7 -23 -33 -23 -39 0 -63 13 -54 29 4
6 2 11 -4 11 -6 0 -14 11 -19 23 -9 22 -41 34 -41 15 0 -5 -7 -16 -16 -25 -24
-24 -39 -1 -39 60 0 46 -2 52 -20 49 -11 -2 -38 -4 -60 -5 -30 -2 -39 -6 -37
-17 6 -25 21 -35 34 -22 16 16 28 15 28 -2 0 -17 -41 -44 -58 -39 -6 3 -10 8
-8 12 3 4 2 12 -2 18 -10 14 -52 27 -52 15 0 -5 9 -12 21 -15 17 -5 19 -9 9
-27 -7 -12 -19 -20 -30 -18 -11 2 -19 -1 -20 -7 0 -5 8 -10 18 -10 9 0 22 -11
29 -25 7 -14 12 -20 13 -14 0 15 49 24 57 11 3 -5 1 -7 -4 -4 -6 4 -13 0 -16
-8 -5 -10 -20 -13 -59 -10 -29 1 -61 6 -70 10 -12 5 -18 2 -18 -7 0 -10 -10
-13 -35 -10 -28 3 -35 1 -35 -13 0 -9 -6 -15 -12 -12 -7 2 -12 12 -12 21 2 13
-3 15 -20 10 -11 -4 -22 -11 -24 -15 -2 -5 -10 -9 -18 -9 -10 0 -12 8 -7 30 3
19 1 30 -6 30 -6 0 -11 -9 -11 -21 0 -11 -4 -18 -9 -14 -5 3 -16 -3 -23 -13
-17 -24 -126 -82 -155 -82 -21 0 -22 -3 -16 -45 4 -32 1 -51 -11 -69 -9 -14
-16 -36 -16 -49 0 -28 -23 -52 -44 -44 -7 3 -23 -6 -35 -19 -19 -22 -20 -26
-6 -40 19 -20 20 -19 -19 -20 -25 -1 -33 2 -29 12 3 8 0 14 -6 14 -6 0 -11 -4
-11 -10 0 -5 -10 -9 -23 -8 -29 2 -78 -31 -97 -66 -7 -14 -22 -26 -32 -26 -12
0 -20 -9 -24 -29 -5 -22 -10 -27 -25 -24 -10 3 -19 12 -19 20 0 8 -4 12 -10 8
-5 -3 -7 -12 -3 -21 3 -8 -2 -23 -12 -33 -14 -17 -21 -35 -24 -63 -1 -12 -59
-10 -66 2 -3 6 -19 10 -36 10 -16 0 -29 4 -29 9 0 5 -9 11 -20 14 -17 4 -18 2
-9 -14 5 -11 7 -24 4 -29 -3 -6 -2 -10 4 -10 6 0 8 -7 5 -15 -4 -8 -12 -15
-19 -15 -8 0 -10 -9 -7 -25 5 -28 -20 -44 -42 -26 -7 6 -16 8 -19 4 -6 -6 -11
20 -8 40 0 4 -13 7 -29 7 -23 0 -30 4 -30 20 0 11 -4 20 -9 20 -18 0 -41 -12
-41 -22 0 -7 5 -6 13 1 8 6 17 8 20 4 11 -10 8 -53 -3 -53 -5 0 -10 7 -10 15
0 8 -8 15 -18 15 -10 0 -24 6 -31 13 -9 7 -11 8 -7 0 3 -6 -6 -15 -24 -22 -17
-5 -30 -12 -30 -15 0 -3 11 -17 25 -32 30 -33 31 -41 4 -49 -26 -9 -35 0 -20
19 13 16 -1 32 -19 21 -5 -3 -10 -1 -10 4 0 6 -10 11 -22 11 -17 0 -19 -3 -9
-9 9 -6 10 -11 2 -15 -14 -9 -33 2 -26 15 4 5 -1 9 -9 9 -9 0 -22 13 -30 29
-13 23 -24 30 -63 36 -39 6 -49 4 -60 -11 -12 -16 -29 -19 -119 -20 -57 0
-106 -3 -109 -6 -2 -2 0 -21 6 -42 16 -57 3 -93 -42 -122 -22 -14 -42 -31 -45
-39 -6 -15 -34 -9 -46 9 -4 6 -10 7 -14 3 -4 -4 -3 -12 3 -18 6 -6 9 -17 7
-24 -3 -6 -1 -30 4 -53 6 -25 6 -44 0 -50 -6 -6 -6 -12 1 -16 7 -5 7 -13 -1
-26 -9 -14 -19 -17 -42 -13 -17 3 -35 12 -39 20 -4 7 -15 13 -24 13 -14 0 -13
-4 5 -20 23 -21 29 -40 13 -40 -5 0 -12 7 -15 16 -5 12 -14 14 -38 9 -18 -4
-38 -12 -45 -17 -9 -7 -21 -3 -39 11 -15 12 -33 21 -40 21 -7 0 -18 8 -23 18
-9 14 -10 14 -11 1 0 -19 19 -39 40 -39 15 -1 60 -33 60 -44 0 -3 -12 -1 -26
4 -35 14 -39 13 -22 -7 11 -14 13 -29 5 -71 -9 -52 -9 -53 -38 -47 -34 8 -36
2 -9 -32 11 -14 16 -30 12 -37 -10 -15 -10 -56 0 -56 4 0 8 5 8 10 0 6 4 10 8
10 10 0 27 -33 37 -68 6 -20 4 -23 -16 -20 -13 2 -29 14 -35 26 -8 16 -14 20
-19 12 -4 -6 -15 -10 -24 -7 -12 3 -22 -5 -30 -25 -8 -16 -20 -32 -28 -35 -20
-8 -53 26 -53 56 0 14 -4 31 -8 37 -8 13 -61 24 -66 15 -3 -4 -40 -6 -83 -5
-43 0 -84 -4 -91 -9 -22 -18 -56 -15 -73 4 -23 26 -26 24 -24 -13 3 -44 -22
-63 -49 -40 -15 13 -18 14 -11 2 6 -12 5 -12 -5 -3 -10 9 -21 6 -51 -13 -21
-13 -43 -24 -48 -24 -5 0 -13 -26 -17 -57 l-9 -58 -55 0 c-53 0 -80 -12 -80
-34 0 -6 7 -11 15 -11 9 0 15 -9 15 -21 0 -12 10 -30 22 -40 17 -16 19 -23 10
-41 -6 -13 -11 -18 -11 -11 -1 13 -31 6 -31 -7 0 -5 9 -12 20 -15 30 -9 25
-49 -10 -84 -24 -23 -29 -36 -24 -55 7 -29 -11 -66 -31 -66 -8 0 -15 -7 -15
-15 0 -8 -7 -15 -15 -15 -9 0 -18 -8 -22 -17 -3 -10 -20 -30 -37 -45 -17 -15
-27 -27 -22 -28 5 0 2 -8 -5 -17 -11 -15 -11 -16 1 -5 20 17 30 15 30 -8 0
-13 -7 -20 -20 -20 -13 0 -20 -7 -20 -20 0 -25 -20 -27 -21 -2 -1 9 -1 20 0
24 0 4 -10 7 -24 6 -20 -2 -23 -6 -19 -24 7 -27 -9 -39 -26 -19 -7 8 -18 15
-25 15 -7 0 -18 14 -26 31 -11 28 -13 30 -20 12 -5 -13 -15 -19 -30 -18 -23 2
-31 -3 -58 -37 -12 -16 -10 -19 12 -27 23 -9 25 -12 14 -35 l-12 -26 -9 30
c-10 35 -22 38 -45 11 -9 -10 -25 -21 -36 -23 -11 -2 -19 -10 -17 -17 3 -13
-11 -12 -51 4 -13 6 -16 3 -11 -9 7 -19 -16 -22 -34 -4 -13 13 -15 4 -16 -89
-1 -42 2 -53 18 -57 10 -2 15 -9 11 -15 -3 -6 -17 -8 -31 -5 -22 6 -24 3 -24
-29 0 -20 -4 -39 -10 -42 -6 -4 -5 -16 3 -33 13 -29 14 -61 3 -105 -6 -27 8
-39 17 -14 2 6 4 -2 3 -20 -2 -44 -9 -47 -39 -19 -17 15 -28 20 -31 13 -6 -16
-26 12 -20 27 2 6 -5 17 -17 24 -20 13 -21 12 -15 -10 9 -27 9 -54 1 -85 -3
-13 -1 -23 5 -23 5 0 10 7 10 16 0 8 5 12 10 9 8 -5 8 -11 1 -19 -6 -7 -8 -16
-4 -19 9 -9 -68 -6 -94 4 -15 5 -23 5 -23 -2 0 -6 -9 -8 -20 -4 -15 5 -18 3
-14 -10 5 -13 2 -14 -21 -5 -31 12 -47 6 -39 -15 3 -7 -1 -24 -9 -37 -16 -27
-16 -73 1 -90 7 -7 12 -9 12 -5 0 4 9 3 20 -3 32 -17 26 -41 -9 -34 -25 5 -35
1 -54 -22 -24 -28 -24 -29 -6 -42 33 -23 20 -61 -28 -83 -54 -24 -73 -17 -73
28 0 27 5 36 20 40 14 4 17 9 11 17 -6 8 -49 9 -138 6 -141 -6 -176 -3 -168
11 4 5 1 9 -4 9 -14 0 -14 -13 -1 -26 5 -5 6 -24 0 -49 -5 -22 -10 -81 -10
-131 l0 -91 35 -19 c28 -15 35 -25 35 -48 0 -16 -9 -40 -21 -52 -22 -24 -49
-22 -49 2 0 12 4 12 20 4 17 -9 20 -7 26 14 3 14 3 30 -1 36 -10 17 -26 0 -20
-21 12 -38 -15 -18 -36 26 -19 41 -39 64 -26 32 3 -8 -3 -20 -12 -27 -14 -9
-19 -28 -20 -77 -1 -50 -6 -68 -23 -85 -25 -25 -13 -34 28 -24 16 4 24 12 21
21 -3 7 1 16 9 19 8 3 14 -1 14 -9 0 -20 13 -19 33 3 21 23 21 32 2 32 -8 0
-15 7 -15 15 0 15 23 11 48 -8 19 -15 14 -27 -14 -38 l-27 -10 22 -23 c20 -22
21 -25 6 -40 -9 -9 -11 -16 -5 -16 6 0 8 -4 5 -10 -3 -5 -1 -10 5 -10 6 0 8
-5 5 -10 -9 -14 -86 -45 -102 -42 -7 2 -13 -4 -13 -13 0 -18 -16 -20 -23 -2
-3 9 -9 8 -22 -5 -17 -16 -17 -18 -1 -33 9 -10 14 -20 11 -23 -3 -4 -10 0 -16
8 -6 10 -8 -14 -4 -70 3 -46 10 -89 15 -94 6 -6 10 -15 10 -20 0 -6 -5 -5 -11
1 -9 9 -15 8 -26 -3 -9 -9 -24 -12 -39 -8 -23 6 -24 5 -15 -20 9 -21 6 -30
-13 -53 -21 -24 -26 -26 -50 -15 -21 9 -26 9 -26 -1 0 -7 5 -18 12 -25 9 -9 7
-12 -10 -12 -19 0 -21 -4 -16 -27 4 -16 13 -35 20 -44 19 -21 18 -35 -1 -19
-9 7 -18 10 -22 7 -3 -3 -18 0 -34 8 -41 22 -55 19 -69 -14 -8 -20 -17 -28
-27 -24 -9 4 -14 0 -12 -8 3 -21 -12 -72 -27 -89 -7 -9 -15 -31 -16 -50 -3
-39 4 -41 59 -19 28 11 34 11 51 -5 17 -15 20 -32 21 -127 l2 -109 -36 -21
c-27 -16 -35 -28 -35 -49 0 -15 6 -33 14 -40 18 -14 10 -40 -13 -40 -21 0 -41
-19 -40 -40 0 -11 4 -9 16 8 8 12 22 22 29 22 24 0 3 -62 -31 -95 -18 -16 -35
-37 -38 -45 -5 -13 -7 -13 -17 0 -9 13 -10 12 -6 -5 7 -24 -33 -75 -58 -75 -9
0 -17 -4 -17 -10 -1 -5 -2 -14 -3 -19 0 -5 -14 -24 -29 -43 -32 -38 -71 -118
-57 -118 5 0 18 13 29 29 23 32 61 48 61 25 0 -8 -4 -13 -8 -12 -5 2 -21 -11
-35 -28 -15 -17 -40 -37 -57 -44 -16 -7 -27 -16 -24 -21 7 -12 -32 -85 -50
-92 -11 -5 -15 -24 -14 -81 0 -42 4 -76 8 -76 10 0 -5 -57 -20 -75 -5 -6 -9
-23 -9 -36 3 -48 -57 -145 -68 -112 -8 23 -33 0 -44 -41 -11 -41 -15 -228 -5
-244 11 -18 -19 -71 -46 -83 -30 -12 -93 -77 -84 -87 3 -3 15 3 27 13 16 15
22 16 28 6 5 -7 17 -11 27 -9 13 2 20 -4 22 -20 4 -27 -13 -51 -45 -63 -14 -5
-23 -17 -23 -29 0 -24 -40 -83 -80 -117 -21 -19 -22 -22 -5 -16 18 6 18 4 -3
-20 -16 -17 -22 -32 -18 -45 5 -15 1 -22 -14 -27 -11 -3 -20 -12 -20 -20 0 -7
-7 -26 -15 -41 -18 -34 -20 -74 -4 -74 7 0 9 -13 5 -37 -3 -21 -6 -46 -7 -56
0 -12 -5 -17 -14 -13 -8 3 -17 1 -20 -3 -3 -5 2 -12 11 -15 8 -3 12 -11 9 -16
-4 -6 -1 -18 7 -27 11 -15 11 -16 -4 -10 -13 4 -18 1 -18 -9 0 -10 6 -14 15
-10 18 7 18 7 0 -38 -8 -20 -19 -36 -24 -36 -5 0 -11 -9 -14 -21 -4 -15 -12
-20 -29 -17 -14 1 -36 -5 -50 -14 -24 -16 -27 -16 -43 2 -31 34 -37 22 -10
-17 14 -21 25 -42 25 -47 0 -5 -16 -28 -35 -52 -31 -38 -36 -52 -40 -111 -3
-37 -8 -81 -11 -97 -4 -18 -2 -26 4 -22 14 8 21 -28 10 -48 -7 -13 -5 -22 6
-35 13 -15 14 -20 2 -36 -14 -20 -38 -13 -30 9 4 10 -2 12 -19 9 -21 -4 -26
-12 -31 -51 -3 -26 -15 -61 -25 -79 -11 -17 -26 -51 -34 -75 -9 -23 -24 -66
-36 -95 -17 -45 -18 -53 -5 -63 9 -8 11 -17 5 -24 -4 -6 -11 -24 -14 -41 -15
-76 -33 -144 -40 -151 -4 -4 -7 -30 -7 -58 -1 -36 -8 -63 -25 -91 -14 -22 -25
-49 -25 -60 0 -11 -16 -53 -34 -93 -25 -50 -36 -90 -39 -132 -3 -44 -9 -66
-24 -79 -16 -16 -21 -38 -27 -122 -4 -57 -12 -106 -17 -110 -5 -3 -9 -19 -8
-35 1 -16 -2 -37 -6 -46 -4 -10 -3 -18 2 -18 6 0 7 -20 1 -52 -4 -29 -8 -98
-7 -153 3 -168 2 -174 -25 -184 -17 -7 -25 -20 -29 -47 -4 -21 -2 -43 3 -48
12 -12 0 -108 -15 -121 -8 -6 -15 -57 -19 -139 -3 -71 -10 -134 -16 -141 -5
-6 -8 -14 -6 -16 3 -2 0 -40 -5 -84 -5 -44 -11 -105 -15 -135 -10 -89 -19
-443 -16 -600 1 -80 3 -178 4 -217 1 -40 4 -73 7 -73 3 0 6 -15 7 -32 0 -18 2
-103 4 -188 l3 -155 -46 -89 c-26 -48 -52 -95 -58 -102 -6 -8 -8 -14 -3 -14 5
0 9 -35 9 -78 l0 -77 -30 -3 c-36 -5 -68 -39 -61 -67 3 -11 -6 -51 -20 -90
-14 -38 -27 -80 -29 -92 -5 -35 -30 -78 -44 -75 -9 2 -11 -6 -6 -26 7 -33 -3
-82 -16 -82 -5 0 -9 10 -10 23 0 21 -1 21 -10 -3 -6 -14 -7 -34 -4 -45 3 -11
8 -55 11 -98 5 -76 4 -78 -26 -108 -22 -23 -28 -35 -21 -47 13 -25 15 -93 3
-122 -8 -20 -7 -28 8 -40 26 -21 43 -67 28 -76 -6 -4 -17 1 -25 11 -11 16 -13
8 -13 -61 0 -43 -5 -106 -10 -139 -6 -33 -15 -100 -20 -150 -6 -49 -12 -103
-15 -120 -3 -16 -5 -78 -5 -137 -1 -78 -4 -108 -13 -108 -8 0 -8 -3 2 -9 7 -5
11 -13 7 -19 -3 -5 -8 -61 -11 -123 -4 -63 -11 -135 -16 -161 -6 -26 -8 -52
-4 -58 3 -5 0 -10 -8 -10 -17 0 -33 -94 -21 -123 4 -10 0 -25 -9 -35 -17 -19
-25 -42 -31 -92 -3 -19 -7 -56 -11 -81 -4 -31 -14 -54 -30 -69 -22 -21 -23
-24 -9 -35 14 -9 14 -16 5 -33 -6 -12 -9 -22 -7 -22 3 0 -8 -26 -24 -59 -17
-32 -30 -71 -30 -87 0 -16 -6 -56 -14 -89 -8 -33 -17 -82 -21 -110 -4 -27 -11
-57 -15 -65 -4 -8 -10 -33 -13 -55 -4 -22 -8 -53 -11 -70 -3 -16 -8 -44 -10
-62 -2 -17 -7 -36 -10 -42 -3 -5 -10 -47 -16 -93 -5 -45 -13 -101 -17 -123 -4
-22 -7 -64 -6 -93 1 -49 -2 -56 -38 -93 -21 -22 -39 -46 -39 -54 0 -21 18 -19
23 3 4 13 5 12 6 -5 0 -12 -3 -24 -8 -27 -5 -3 -9 -24 -9 -46 -1 -23 3 -38 9
-35 5 4 9 -4 8 -17 0 -13 -3 -17 -6 -10 -10 24 -23 0 -23 -42 0 -46 -17 -106
-30 -106 -5 0 -6 -13 -4 -29 3 -16 -5 -52 -16 -82 -26 -64 -25 -60 -9 -70 10
-6 10 -11 1 -22 -7 -7 -9 -17 -5 -20 3 -4 -1 -15 -10 -25 -10 -10 -14 -22 -11
-25 4 -4 1 -13 -6 -22 -10 -11 -10 -18 -1 -29 10 -11 8 -15 -5 -18 -10 -2 -18
-14 -20 -28 -1 -14 -4 -48 -7 -76 -3 -27 -15 -67 -27 -87 -14 -23 -18 -37 -10
-37 8 0 9 -6 4 -17 -8 -20 -11 -42 -19 -148 -6 -77 -8 -89 -22 -123 -5 -13 -8
-45 -7 -70 1 -26 -7 -80 -17 -121 -11 -41 -19 -93 -19 -116 0 -23 -3 -45 -7
-49 -4 -3 -8 -16 -10 -27 -2 -15 1 -20 11 -16 10 4 13 1 9 -9 -3 -7 -10 -14
-15 -14 -7 0 -7 -4 0 -12 6 -9 6 -33 0 -73 -6 -33 -11 -74 -12 -92 -1 -17 -5
-35 -9 -39 -4 -4 -7 -47 -7 -96 0 -48 -4 -88 -8 -88 -4 0 -7 -12 -6 -27 1 -16
3 -28 4 -28 1 0 2 -38 3 -85 1 -47 6 -91 10 -98 11 -17 -2 -54 -24 -70 -23
-16 -24 -38 -3 -50 14 -8 14 -10 -1 -26 -17 -16 -16 -57 2 -103 4 -11 2 -14
-5 -9 -8 5 -10 -10 -7 -50 2 -31 0 -64 -4 -73 -11 -21 -19 -161 -9 -155 4 3 8
1 8 -5 0 -5 -5 -13 -11 -17 -6 -3 -9 -15 -6 -25 3 -11 1 -19 -5 -19 -5 0 -6
-4 -3 -10 3 -5 1 -19 -5 -30 -8 -16 -8 -25 0 -35 6 -7 12 -31 14 -52 1 -21 4
-42 6 -48 6 -23 -1 -45 -15 -45 -8 0 -15 -4 -15 -10 0 -5 8 -7 18 -4 14 5 14
4 2 -4 -8 -6 -15 -23 -17 -39 -5 -49 -4 -497 1 -518 2 -11 5 -25 5 -32 1 -7 7
-10 14 -7 8 3 14 -2 14 -11 0 -8 -6 -15 -12 -15 -14 0 -10 -145 5 -195 5 -16
8 -56 7 -88 -1 -31 2 -57 6 -57 5 0 5 -4 2 -10 -3 -5 1 -10 9 -10 23 0 29 -18
31 -84 1 -34 16 -131 34 -216 18 -85 33 -166 33 -180 0 -24 14 -53 62 -135 21
-34 24 -51 21 -115 -3 -88 -1 -96 29 -104 25 -6 41 -46 55 -138 5 -34 4 -48
-5 -50 -9 -2 -9 -10 1 -33 14 -30 14 -30 9 -2 -5 20 -2 27 10 27 10 0 13 -6
10 -15 -4 -8 -2 -21 4 -28 5 -6 10 -19 11 -27 1 -8 4 -31 6 -50 3 -19 11 -80
19 -135 7 -55 25 -152 38 -215 14 -63 31 -140 37 -170 27 -132 33 -153 52
-196 10 -25 26 -78 34 -116 8 -39 20 -77 27 -86 7 -8 18 -36 25 -61 6 -25 21
-73 33 -106 12 -33 30 -101 39 -150 10 -50 25 -104 33 -120 9 -17 19 -45 23
-62 3 -18 19 -43 34 -56 21 -17 30 -36 35 -72 5 -27 28 -94 53 -149 28 -62 49
-126 54 -166 17 -125 31 -172 71 -246 40 -75 52 -108 68 -194 9 -52 29 -100
42 -100 4 0 8 -24 8 -53 0 -70 22 -171 51 -231 17 -35 21 -50 12 -53 -9 -3 -6
-15 10 -41 13 -20 40 -89 62 -152 21 -63 53 -146 72 -185 22 -47 33 -84 33
-115 0 -45 23 -95 40 -85 14 9 32 -52 25 -85 -5 -24 0 -42 24 -85 19 -34 31
-69 31 -92 0 -23 12 -60 29 -93 20 -37 26 -60 21 -71 -13 -24 3 -73 28 -84 18
-8 22 -18 22 -52 0 -23 5 -45 10 -48 6 -3 10 -15 10 -26 0 -10 4 -19 10 -19 5
0 6 -7 3 -17 -4 -9 -2 -14 3 -10 18 11 35 -9 38 -44 3 -30 47 -126 74 -163 13
-17 32 -88 26 -98 -6 -10 16 -78 30 -93 6 -6 6 -5 1 4 -5 9 -3 12 6 9 7 -2 18
-29 24 -59 6 -30 17 -65 25 -79 7 -13 13 -37 12 -53 0 -16 4 -40 9 -54 8 -21
12 -23 24 -13 13 11 14 10 9 -4 -3 -9 -1 -16 5 -16 7 0 9 -9 5 -24 -4 -16 3
-40 20 -72 14 -27 26 -56 26 -66 0 -9 12 -30 26 -47 17 -21 28 -49 34 -88 4
-32 17 -74 28 -93 14 -24 22 -60 25 -110 7 -107 26 -166 112 -335 64 -125 77
-159 79 -204 2 -41 7 -57 21 -65 39 -22 65 -56 65 -83 1 -15 10 -53 21 -83 11
-30 29 -82 40 -115 11 -33 29 -69 39 -80 14 -15 20 -35 20 -67 0 -41 4 -49 33
-69 17 -12 34 -24 36 -26 3 -2 6 -31 8 -66 4 -67 18 -123 38 -147 20 -24 65
-125 65 -146 0 -10 13 -44 29 -75 16 -31 50 -119 76 -195 26 -77 55 -152 65
-169 10 -16 21 -50 25 -74 4 -26 17 -54 31 -68 13 -13 24 -30 24 -38 0 -8 4
-15 9 -15 9 0 22 -31 40 -97 7 -24 27 -60 46 -80 19 -21 35 -43 35 -50 0 -29
114 -234 159 -288 28 -32 51 -64 51 -70 0 -7 20 -32 43 -56 24 -24 56 -68 71
-98 35 -71 98 -145 136 -161 25 -10 30 -18 30 -46 0 -40 -19 -53 -93 -60 -70
-7 -101 -20 -112 -47 -7 -14 -26 -26 -59 -35 -27 -8 -56 -20 -63 -28 -15 -14
-76 -34 -107 -34 -10 0 -42 -15 -70 -34 -70 -46 -151 -86 -175 -86 -11 0 -22
-4 -25 -9 -3 -4 -31 -13 -63 -20 -32 -6 -69 -18 -83 -26 -50 -28 -93 -45 -116
-45 -13 0 -34 -11 -48 -25 -14 -14 -34 -25 -46 -25 -11 0 -20 -4 -20 -9 0 -5
-15 -14 -32 -21 -18 -6 -46 -18 -63 -25 -16 -7 -44 -16 -62 -19 -17 -3 -62
-24 -99 -47 -64 -39 -70 -41 -102 -29 -18 6 -34 10 -36 8 -1 -1 -7 -15 -14
-30 -9 -21 -19 -28 -40 -28 -15 0 -35 -9 -45 -20 -9 -11 -26 -20 -36 -20 -11
0 -22 -4 -25 -9 -3 -5 -17 -9 -30 -9 -14 0 -48 -14 -77 -31 -28 -18 -64 -34
-79 -36 -15 -2 -46 -13 -68 -24 -23 -12 -49 -21 -58 -21 -9 0 -32 -16 -52 -36
-25 -25 -41 -34 -56 -30 -19 5 -88 -26 -148 -66 -14 -10 -35 -18 -45 -18 -10
0 -23 -4 -28 -8 -6 -5 -37 -14 -70 -21 -73 -16 -115 -30 -135 -47 -8 -6 -35
-18 -60 -25 -25 -7 -54 -20 -65 -30 -11 -9 -40 -20 -65 -23 -25 -4 -63 -18
-85 -31 -105 -64 -135 -75 -203 -79 -51 -2 -77 -9 -107 -28 -42 -26 -115 -52
-176 -62 -21 -4 -42 -13 -49 -21 -7 -8 -27 -15 -45 -15 -18 0 -38 -7 -46 -16
-18 -22 -64 -44 -91 -44 -12 0 -74 -26 -138 -59 -63 -32 -128 -61 -144 -65
-15 -4 -43 -23 -62 -43 -28 -30 -39 -35 -66 -30 -41 6 -78 -7 -78 -28 0 -8
-12 -17 -27 -20 -27 -6 -71 -25 -103 -44 -21 -13 -73 -35 -85 -37 -5 0 -32
-11 -58 -22 -27 -12 -61 -25 -75 -29 -46 -11 -112 -43 -112 -55 0 -5 -7 -7
-16 -4 -9 4 -23 1 -30 -5 -10 -8 -14 -8 -14 0 0 17 -14 13 -46 -11 -15 -12
-33 -23 -40 -24 -6 -1 -35 -18 -64 -38 -29 -20 -65 -36 -80 -36 -16 0 -46 -15
-73 -35 -25 -19 -53 -35 -62 -35 -19 0 -91 -36 -100 -50 -3 -5 -13 -10 -21
-10 -8 0 -32 -11 -53 -25 -22 -13 -60 -30 -86 -36 -25 -6 -68 -23 -96 -38
-196 -103 -248 -129 -281 -135 -21 -4 -42 -15 -47 -25 -11 -20 -47 -36 -103
-46 -29 -4 -42 -13 -53 -35 -10 -19 -24 -30 -38 -31 -21 0 -21 -1 -2 -9 16 -7
17 -9 3 -9 -9 -1 -20 3 -23 9 -10 16 -47 5 -66 -19 -10 -13 -34 -25 -56 -28
-21 -3 -96 -35 -168 -69 -71 -35 -135 -64 -141 -64 -7 0 -14 -4 -16 -8 -1 -5
-37 -26 -78 -48 -41 -21 -81 -44 -88 -51 -7 -7 -30 -17 -52 -23 -21 -6 -52
-21 -67 -34 -15 -13 -56 -36 -90 -51 -35 -16 -65 -35 -68 -44 -7 -22 -82 -67
-125 -76 -19 -4 -54 -18 -77 -31 -23 -13 -54 -24 -70 -24 -16 0 -40 -8 -53
-17 -14 -10 -63 -38 -110 -62 -47 -24 -105 -54 -130 -67 -25 -13 -77 -54 -117
-91 -39 -37 -87 -77 -105 -87 -45 -26 -68 -47 -68 -62 0 -6 -24 -26 -54 -42
-65 -37 -265 -221 -288 -266 -15 -29 -59 -76 -150 -162 -18 -17 -55 -59 -83
-95 -27 -35 -63 -75 -79 -89 -49 -42 -176 -174 -176 -184 0 -15 -89 -133 -104
-139 -8 -3 -18 -22 -22 -42 -5 -27 -18 -44 -55 -73 -27 -20 -52 -48 -55 -62
-10 -39 -53 -107 -82 -133 -29 -25 -72 -81 -72 -94 0 -5 -12 -25 -26 -46 -14
-21 -27 -47 -29 -59 -10 -50 -28 -89 -50 -106 -12 -10 -32 -39 -44 -64 -11
-26 -25 -50 -31 -53 -17 -10 -60 -110 -60 -138 0 -21 -73 -178 -110 -237 -23
-37 -228 -469 -240 -505 -7 -22 -34 -86 -61 -143 -27 -56 -49 -113 -49 -126 0
-14 -12 -38 -26 -55 -14 -17 -22 -36 -19 -42 4 -6 3 -21 -3 -32 -35 -78 -52
-128 -57 -173 -4 -33 -15 -61 -31 -79 -18 -21 -24 -40 -24 -74 0 -26 -8 -59
-18 -76 -10 -16 -24 -50 -31 -75 -7 -25 -21 -67 -31 -95 -10 -27 -21 -77 -24
-109 -5 -43 -14 -70 -33 -95 -17 -22 -26 -45 -25 -64 3 -30 -23 -181 -34 -200
-4 -7 -16 -22 -27 -34 -14 -15 -18 -29 -13 -47 8 -34 -13 -161 -35 -211 -23
-54 -27 -69 -35 -145 -4 -36 -11 -75 -15 -88 -5 -13 -9 -38 -9 -57 0 -19 -5
-46 -11 -62 -6 -15 -17 -66 -25 -113 -7 -47 -18 -105 -23 -130 -6 -25 -10 -70
-11 -100 0 -44 -4 -58 -20 -68 -22 -13 -26 -42 -9 -59 8 -8 8 -31 -1 -84 -6
-41 -11 -109 -11 -152 0 -48 -7 -102 -19 -140 -10 -34 -24 -107 -30 -162 -6
-55 -13 -116 -16 -135 -3 -19 -9 -73 -14 -120 -5 -47 -16 -110 -25 -140 -8
-30 -18 -86 -21 -125 -2 -38 -7 -83 -10 -100 -9 -47 -26 -272 -28 -355 -1 -41
-5 -82 -11 -90 -9 -15 -16 -116 -16 -234 0 -38 -5 -78 -10 -88 -6 -11 -12 -72
-14 -136 -2 -64 -7 -153 -10 -197 -3 -44 -8 -107 -10 -140 -2 -33 -7 -96 -10
-140 -3 -44 -11 -101 -17 -127 -9 -37 -9 -50 1 -62 10 -11 10 -20 3 -28 -6 -7
-13 -47 -16 -88 -7 -77 -24 -199 -31 -209 -2 -3 -6 -44 -10 -91 -3 -47 -13
-107 -21 -134 -8 -27 -14 -60 -14 -73 0 -13 -9 -49 -20 -80 -27 -80 -71 -303
-76 -393 -3 -41 -12 -120 -20 -175 -9 -55 -18 -116 -21 -135 -3 -19 -10 -41
-15 -48 -6 -7 -8 -33 -4 -61 4 -30 2 -60 -6 -77 -6 -16 -13 -59 -14 -96 -2
-44 -9 -76 -21 -94 -18 -28 -19 -40 -22 -206 -1 -37 -8 -82 -15 -100 -8 -19
-16 -97 -20 -183 -4 -82 -12 -170 -17 -195 -13 -59 -23 -188 -21 -275 1 -46
-4 -75 -12 -85 -20 -22 -24 -56 -32 -240 -3 -91 -8 -168 -10 -171 -7 -12 -24
-151 -25 -207 -1 -31 -6 -68 -12 -82 -10 -26 -16 -192 -16 -458 0 -92 -5 -160
-11 -173 -7 -11 -13 -57 -16 -102 -2 -45 -8 -152 -14 -237 -6 -85 -13 -202
-15 -260 -4 -118 -9 -181 -20 -267 -4 -32 -8 -86 -9 -119 -1 -43 -6 -68 -18
-80 -10 -11 -19 -46 -24 -84 -4 -36 -8 -70 -8 -76 -1 -7 -7 -18 -13 -25 -6 -8
-18 -45 -28 -84 -9 -38 -21 -78 -26 -87 -5 -10 -11 -45 -13 -78 -3 -34 -11
-71 -20 -85 -15 -23 -31 -93 -46 -210 -8 -64 -47 -179 -73 -215 -10 -14 -13
-34 -10 -61 4 -30 1 -45 -13 -62 -33 -38 -43 -62 -33 -80 19 -33 14 -89 -10
-108 -19 -15 -22 -29 -24 -87 -2 -58 -6 -73 -24 -88 -24 -20 -28 -55 -17 -145
4 -33 1 -54 -9 -70 -8 -13 -20 -42 -27 -64 -7 -22 -25 -59 -41 -83 -24 -35
-29 -53 -28 -100 2 -96 -19 -203 -44 -230 -17 -18 -24 -41 -29 -100 -20 -212
-25 -239 -46 -274 -12 -19 -22 -52 -22 -71 0 -20 -9 -59 -20 -87 -16 -40 -20
-74 -20 -158 0 -100 -2 -111 -25 -142 -23 -31 -26 -43 -24 -120 1 -69 -2 -92
-19 -120 -14 -25 -20 -53 -20 -94 1 -52 -2 -62 -26 -82 -15 -14 -25 -32 -25
-46 4 -59 -14 -249 -28 -298 -17 -61 -18 -70 -28 -190 -4 -47 -11 -98 -16
-115 -10 -29 -25 -169 -34 -303 -2 -35 -8 -78 -14 -95 -5 -18 -12 -84 -15
-147 -3 -63 -10 -167 -15 -230 -5 -63 -7 -212 -4 -330 3 -118 6 -237 6 -265 1
-82 -39 -342 -56 -368 -8 -13 -23 -66 -33 -118 -9 -52 -25 -116 -34 -144 -10
-27 -20 -72 -23 -98 -2 -26 -13 -57 -22 -67 -14 -16 -18 -36 -17 -95 0 -67 -2
-79 -24 -102 -13 -14 -25 -35 -26 -47 -3 -51 -7 -75 -23 -141 -9 -38 -21 -95
-27 -125 -6 -30 -17 -63 -26 -73 -9 -11 -18 -48 -22 -100 -4 -47 -16 -101 -27
-127 -54 -119 -67 -165 -68 -243 -1 -83 -6 -93 -45 -99 -24 -3 -24 -4 -26
-117 -1 -101 -4 -116 -22 -130 -15 -12 -21 -31 -24 -78 -3 -47 -10 -69 -26
-86 -16 -17 -24 -43 -31 -97 -5 -41 -23 -115 -40 -164 -18 -53 -31 -109 -31
-138 0 -31 -8 -65 -24 -96 -25 -51 -57 -172 -62 -239 -1 -23 -9 -54 -17 -70
-8 -15 -22 -57 -31 -93 -9 -35 -24 -72 -33 -82 -10 -11 -17 -41 -20 -84 -2
-47 -9 -74 -23 -91 -21 -27 -27 -63 -10 -63 17 0 11 -26 -16 -66 -19 -27 -27
-55 -31 -98 -3 -33 -11 -78 -18 -101 -8 -22 -17 -59 -21 -83 -4 -23 -14 -48
-24 -55 -13 -9 -19 -30 -22 -78 -3 -48 -10 -73 -26 -94 -16 -20 -22 -41 -22
-79 0 -28 -6 -63 -14 -77 -7 -14 -16 -50 -20 -79 -4 -30 -12 -60 -18 -67 -6
-7 -10 -32 -10 -55 1 -25 -9 -64 -22 -93 -13 -27 -26 -77 -29 -111 -4 -33 -15
-80 -26 -105 -12 -24 -21 -58 -21 -74 0 -17 -11 -51 -25 -77 -14 -26 -25 -57
-25 -70 0 -13 -7 -45 -15 -72 -8 -27 -15 -68 -15 -90 0 -23 -7 -54 -15 -70 -8
-15 -15 -37 -15 -48 0 -10 -9 -38 -20 -60 -11 -23 -20 -62 -20 -88 0 -26 -9
-63 -20 -85 -11 -22 -23 -58 -26 -80 -3 -22 -13 -59 -21 -83 -9 -23 -13 -46
-9 -49 8 -8 12213 -14 12349 -6 65 4 87 9 87 19 0 8 5 14 10 14 6 0 10 -4 10
-10 0 -9 13 -10 115 -8 33 1 88 2 123 1 72 -1 83 13 18 22 l-44 7 2 54 c1 30
-2 54 -6 54 -5 0 -7 -4 -3 -9 3 -5 1 -12 -4 -15 -5 -3 -7 -15 -4 -26 3 -11 0
-27 -7 -35 -11 -14 -15 -14 -31 1 -23 21 -25 64 -4 64 8 0 15 6 15 14 0 18 43
63 56 59 6 -2 11 12 11 32 0 19 -5 35 -10 35 -5 0 -3 7 4 17 11 13 11 17 2 20
-19 7 -16 21 3 19 9 0 19 5 21 12 4 9 -2 11 -21 6 -30 -7 -34 3 -9 22 17 11
16 13 -8 19 -15 4 -32 18 -38 31 -15 34 -14 35 13 28 18 -4 27 -1 35 14 15 28
14 30 -11 34 -14 2 -25 13 -29 28 -6 23 -7 23 -8 3 -1 -12 7 -30 17 -39 16
-17 16 -18 -1 -11 -10 4 -23 7 -29 7 -5 0 -8 21 -5 51 3 45 2 49 -10 33 -7
-10 -13 -24 -13 -31 0 -7 -9 -13 -20 -13 -11 0 -20 7 -20 15 0 9 6 12 18 8 9
-3 14 -3 10 2 -10 11 10 45 27 45 8 0 20 9 27 20 15 24 34 26 42 4 8 -21 19
-11 24 23 3 23 1 25 -12 14 -8 -7 -19 -10 -25 -7 -5 4 -19 -5 -30 -20 -11 -14
-25 -23 -31 -19 -7 4 -8 11 -2 18 5 7 11 28 14 48 3 27 0 35 -9 32 -9 -4 -12
-16 -7 -39 5 -30 4 -33 -12 -27 -10 4 -15 2 -11 -3 3 -6 -3 -15 -14 -22 -17
-11 -20 -9 -19 14 1 3 -9 14 -22 24 -19 16 -21 21 -9 29 19 13 23 41 5 34 -8
-3 -14 -9 -14 -15 0 -5 -4 -7 -9 -4 -5 3 -14 -1 -21 -9 -10 -12 -9 -15 5 -15
24 0 13 -24 -13 -28 -12 -2 -22 -10 -22 -18 0 -8 -4 -12 -10 -9 -13 8 -8 54 7
67 7 6 13 17 13 24 0 8 6 11 16 7 12 -4 14 0 9 20 -5 20 -1 32 19 52 14 14 26
30 26 35 0 6 5 10 11 10 6 0 8 -9 4 -22 -7 -22 -6 -22 11 -6 17 17 17 18 -4
36 -12 11 -19 22 -15 26 14 14 -12 5 -29 -11 -15 -14 -22 -14 -42 -3 -13 7
-30 9 -36 5 -9 -5 -10 -2 -6 12 10 31 -3 55 -25 48 -16 -5 -19 -1 -19 22 0 31
-12 55 -26 54 -32 -3 -41 11 -38 55 4 50 11 67 25 59 5 -4 9 1 9 9 0 9 -6 13
-14 10 -10 -4 -16 2 -18 18 -3 25 -38 39 -38 15 0 -9 4 -17 9 -19 12 -5 24
-48 13 -48 -32 0 -51 89 -19 91 7 0 3 4 -8 9 -17 7 -17 9 -2 9 21 1 23 37 2
57 -18 18 -19 11 -4 -18 6 -12 7 -18 1 -14 -14 9 -33 -19 -26 -38 3 -9 1 -16
-5 -16 -6 0 -11 16 -11 35 0 19 -4 35 -10 35 -5 0 -10 8 -11 18 0 10 -3 12 -6
5 -8 -22 -53 -14 -78 13 -14 15 -31 24 -39 21 -10 -4 -13 -1 -10 8 3 7 -4 19
-16 25 -12 7 -19 18 -16 25 3 9 -7 21 -24 32 -25 15 -27 18 -13 28 11 9 13 14
5 19 -7 4 -12 19 -12 34 0 19 -3 23 -9 13 -7 -11 -13 -10 -35 4 -15 10 -26 13
-26 6 0 -19 -25 -12 -56 14 -22 20 -26 27 -15 34 10 7 11 13 2 30 -7 11 -16
21 -22 21 -6 0 -7 -4 -4 -10 3 -5 1 -10 -5 -10 -6 0 -8 10 -4 25 8 31 -3 78
-16 70 -6 -3 -10 3 -10 14 0 12 5 21 10 21 13 0 13 27 -1 32 -5 2 -7 11 -4 20
6 16 45 14 45 -3 0 -5 4 -9 10 -9 20 0 -14 49 -40 59 -24 8 -28 15 -28 46 0
24 7 44 21 58 13 13 17 22 9 25 -7 2 -12 12 -12 22 0 10 -6 20 -13 23 -10 4
-13 22 -11 59 1 29 3 55 4 58 1 3 2 8 1 13 0 4 4 7 11 7 6 0 4 7 -5 18 -20 22
-22 39 -5 44 9 3 8 9 -4 22 -18 17 -17 47 2 107 5 17 4 31 -3 38 -19 19 6 33
38 21 22 -8 30 -8 37 2 16 27 -2 47 -21 24 -7 -8 -21 -12 -32 -9 -27 8 -23 60
5 55 12 -2 16 1 10 9 -10 16 -12 76 -3 90 4 8 11 4 19 -11 l12 -22 15 21 c13
19 12 23 -1 37 -9 9 -17 35 -18 62 -1 37 -2 40 -5 15 -2 -18 -8 -33 -14 -33
-14 0 -11 -28 4 -33 7 -2 8 -8 3 -13 -5 -5 -10 -4 -13 3 -2 6 -13 21 -24 34
-20 23 -25 49 -10 49 5 0 11 9 14 20 4 16 0 20 -23 20 -44 0 -49 13 -41 113 0
10 6 15 11 12 6 -4 8 -11 5 -16 -9 -13 9 -11 23 3 9 9 17 6 37 -12 24 -23 37
-16 13 8 -9 9 -8 12 5 12 10 0 17 8 17 21 0 11 5 17 10 14 6 -3 10 -1 10 5 0
7 -8 9 -22 4 -13 -3 -20 -3 -15 1 4 5 0 17 -10 27 -9 10 -13 18 -8 18 4 0 -10
16 -31 35 -21 19 -33 35 -26 35 15 0 4 59 -15 81 -8 9 -15 39 -16 67 -2 27 -8
56 -14 64 -6 7 -14 43 -17 79 -7 62 -6 68 20 99 16 18 29 39 30 47 3 19 -26
29 -36 14 -12 -21 -18 7 -16 83 1 58 4 69 19 72 9 1 24 -4 31 -12 12 -11 16
-11 25 0 14 16 -21 51 -42 43 -8 -3 -20 0 -26 6 -14 14 -15 57 -1 57 6 0 10 9
10 20 0 13 -7 20 -20 20 -12 0 -20 7 -20 18 0 14 2 15 10 2 14 -22 22 -6 11
23 -14 35 -11 145 4 157 11 10 11 56 -1 135 -4 27 -1 53 9 77 16 38 7 61 -19
51 -8 -3 -14 0 -14 7 0 7 8 10 20 7 11 -3 20 -1 20 4 0 5 10 9 21 9 18 0 19
-2 9 -15 -7 -9 -10 -18 -7 -21 3 -3 11 4 17 16 7 13 8 25 3 29 -4 3 -9 22 -10
41 -3 66 -2 64 -18 50 -13 -10 -19 -10 -33 4 -10 9 -22 13 -25 9 -6 -5 -11 17
-9 38 1 3 2 30 3 60 1 30 7 57 13 61 8 5 7 8 -1 8 -16 0 -17 44 -1 70 7 10 9
23 5 27 -5 4 -12 1 -17 -7 -7 -11 -10 2 -11 40 -4 155 -9 233 -18 244 -19 23
-21 400 -2 419 16 16 14 37 -4 37 -18 0 -17 -17 -21 274 -2 171 -6 241 -15
246 -7 5 -13 50 -15 131 -2 68 -6 174 -10 234 -6 115 -6 181 1 327 2 51 -1 90
-6 94 -6 3 -10 40 -10 82 -1 110 -10 1000 -15 1369 -2 184 -8 322 -14 339 -8
20 -8 36 2 58 7 17 11 36 9 41 -14 43 -17 1481 -3 1516 6 15 7 31 1 40 -7 11
-12 258 -11 584 1 328 13 1239 17 1265 3 19 10 37 15 38 6 2 7 9 3 15 -10 17
-11 67 0 67 5 0 7 9 4 20 -3 13 1 21 15 26 18 5 18 7 3 24 -9 10 -19 34 -21
52 -12 94 -11 200 2 265 8 40 10 81 6 92 -12 32 5 217 27 301 22 81 23 104 16
310 -2 74 0 139 4 145 5 5 8 37 6 70 -1 33 5 82 13 110 10 35 11 54 4 66 -21
33 -34 100 -22 114 6 7 10 17 8 21 -5 22 15 74 29 74 14 0 15 2 1 18 -17 18
-16 76 3 166 5 27 6 52 2 55 -7 5 -9 138 -4 272 0 20 10 46 21 59 18 21 19 34
15 238 -3 146 -1 220 6 229 6 7 9 19 6 27 -3 7 1 24 10 36 14 20 14 23 0 37
-11 11 -13 23 -7 44 5 16 6 29 3 29 -3 0 0 7 8 16 9 11 12 43 11 102 -2 77 4
112 29 179 5 14 3 25 -6 33 -15 12 -19 130 -4 130 14 0 21 41 9 55 -9 11 -9
15 -1 15 7 0 11 19 11 49 0 31 5 51 13 54 9 3 9 7 1 18 -11 13 -11 88 0 135 3
11 17 26 31 32 25 12 25 12 8 39 -10 16 -21 30 -25 33 -7 6 -4 96 5 120 3 8 8
40 11 70 16 154 27 201 60 240 11 14 14 19 6 13 -8 -7 -16 -13 -20 -13 -8 0
-6 283 2 296 4 5 7 23 7 40 -1 44 9 123 16 134 4 6 11 8 16 5 5 -4 6 2 2 12
-3 10 -3 15 2 11 4 -4 20 -1 35 7 24 12 30 12 39 1 14 -16 51 -9 51 9 0 8 -6
20 -13 27 -8 7 -12 19 -9 27 3 10 0 11 -17 2 -17 -10 -21 -9 -21 5 0 9 -9 18
-21 21 -18 5 -20 11 -14 42 4 20 9 56 11 81 2 25 7 58 11 73 l8 28 23 -21 c12
-11 22 -17 22 -12 0 14 51 66 67 68 7 1 13 -5 13 -15 0 -9 7 -27 16 -39 19
-28 39 -30 24 -2 -7 14 -7 20 0 20 15 0 12 19 -5 36 -12 12 -13 20 -4 36 11
20 12 21 25 4 7 -10 10 -24 7 -32 -4 -10 0 -12 11 -8 9 3 13 11 9 18 -3 6 2 3
13 -6 13 -12 24 -14 34 -8 8 5 10 10 4 10 -19 0 -36 50 -23 66 9 11 13 11 25
-1 8 -7 14 -22 14 -33 0 -11 7 -22 14 -25 9 -4 13 -1 11 6 -11 37 -15 137 -5
137 6 0 9 -4 6 -9 -4 -5 -2 -11 2 -13 5 -1 12 -16 16 -31 4 -19 3 -26 -4 -22
-16 10 -12 -11 5 -25 13 -10 15 -9 15 11 l1 24 18 -22 c16 -20 21 -21 31 -8
10 12 9 15 -6 15 -16 0 -17 2 -4 11 13 9 13 10 0 8 -28 -3 -40 1 -40 12 0 7
10 9 25 5 21 -5 25 -3 25 15 0 14 -5 19 -15 16 -8 -4 -17 -2 -21 4 -3 6 -12 8
-20 5 -8 -3 -14 1 -14 10 0 8 -6 17 -14 20 -16 6 -51 73 -42 81 3 3 8 -6 12
-21 8 -32 29 -34 31 -3 2 32 -6 67 -15 66 -21 -4 -32 3 -32 20 0 11 -6 21 -12
24 -7 2 -10 8 -6 12 4 4 14 3 21 -4 12 -9 14 -7 12 11 -2 13 -4 28 -5 33 -5
21 1 29 10 15 8 -13 10 -12 10 3 0 15 7 18 43 15 34 -2 41 -6 39 -20 -4 -22
14 -24 22 -2 11 30 6 53 -16 68 -31 22 -36 20 -30 -10 3 -18 1 -25 -6 -20 -6
4 -9 13 -6 20 3 7 -2 16 -10 19 -22 9 -20 37 2 37 10 0 27 -7 38 -15 10 -8 29
-15 41 -15 15 0 23 -7 25 -22 3 -18 5 -16 9 10 5 27 3 31 -11 27 -10 -3 -23 2
-31 12 -12 15 -12 16 3 10 12 -4 15 -2 11 9 -3 8 1 14 10 14 8 0 18 6 20 13 3
7 6 5 6 -5 1 -11 9 -18 22 -18 11 0 17 -5 14 -10 -10 -15 5 -50 20 -50 9 0 12
6 8 15 -3 10 0 15 8 13 8 -2 13 3 12 10 -2 6 -4 17 -5 24 -2 6 6 14 16 16 15
3 18 0 13 -17 -4 -18 -1 -21 23 -21 31 0 48 15 28 23 -7 3 -2 6 12 7 27 2 25
4 -37 25 -14 4 -23 16 -23 27 0 20 0 20 -17 0 -20 -23 -62 -36 -78 -25 -25 19
-45 93 -25 93 6 0 10 -9 10 -20 0 -27 17 -25 26 3 3 12 16 31 27 41 16 16 23
17 40 7 17 -11 19 -11 14 3 -4 9 -2 16 3 16 6 0 10 -7 10 -15 0 -24 29 -30 44
-10 7 10 11 29 9 44 -3 26 -3 26 8 4 17 -33 51 -29 67 7 8 17 18 28 23 24 5
-3 9 1 9 8 1 8 7 5 17 -7 17 -22 17 -21 -3 61 -3 12 1 26 11 34 20 16 32 5 15
-15 -17 -21 -7 -19 19 5 33 28 48 9 45 -55 -3 -48 -3 -48 6 -15 27 93 30 128
11 139 -12 7 -11 51 1 51 4 0 8 -6 9 -12 0 -7 5 -3 11 10 6 12 20 22 30 22 15
0 17 4 9 18 -5 10 -9 27 -8 37 2 15 -5 21 -25 23 -16 2 -28 -1 -28 -7 0 -6
-11 -11 -25 -11 -14 0 -25 5 -25 11 0 6 7 8 17 5 17 -7 66 31 58 45 -3 4 -1
10 5 14 6 3 13 -1 17 -10 3 -10 0 -21 -8 -26 -11 -7 -9 -9 6 -9 12 0 26 5 32
11 7 7 12 5 17 -6 4 -13 2 -16 -9 -12 -17 7 -30 -9 -15 -18 6 -4 8 -15 5 -25
-3 -11 0 -20 10 -24 20 -7 20 -26 0 -26 -9 0 -18 -7 -21 -15 -4 -8 -10 -13
-14 -10 -4 3 -10 -4 -13 -15 -8 -31 17 -29 30 2 14 32 38 29 30 -4 -4 -12 -1
-18 6 -15 7 2 12 10 12 18 0 9 9 13 23 11 24 -4 30 16 10 36 -9 9 -9 18 0 37
7 15 9 31 6 37 -4 7 -2 8 4 4 7 -4 12 -3 12 2 0 17 -13 21 -34 10 -11 -6 -18
-7 -14 -3 4 4 3 16 -3 27 -9 17 -8 19 10 13 15 -5 21 -2 21 9 0 9 5 16 10 16
6 0 10 -11 10 -25 0 -46 43 -28 48 20 1 17 4 40 5 52 1 12 6 21 11 20 5 -1 13
9 17 23 7 24 7 24 8 -6 1 -17 4 -34 9 -38 4 -4 7 -13 7 -19 1 -7 6 -11 13 -9
7 1 12 -3 12 -9 0 -7 -9 -9 -23 -5 -21 5 -23 2 -23 -29 0 -38 13 -48 18 -13 4
29 24 34 31 8 7 -26 36 -27 34 0 -1 12 -7 18 -13 16 -8 -3 -11 3 -8 20 3 17 0
24 -11 24 -17 0 -20 16 -5 25 6 3 10 2 10 -4 0 -17 51 -26 61 -10 9 16 14 12
24 -20 5 -17 4 -21 -5 -16 -7 4 -10 1 -8 -11 2 -12 -2 -18 -10 -16 -8 1 -12
-3 -10 -10 7 -20 40 -22 50 -4 5 9 22 16 38 16 34 0 48 16 21 25 -22 7 -37 35
-18 35 8 0 8 3 -2 9 -19 12 -4 31 25 31 28 0 33 -17 7 -22 -13 -3 -11 -5 7 -9
21 -4 25 -1 26 18 1 17 -3 23 -18 23 -20 0 -68 42 -68 60 0 15 16 12 36 -8 16
-15 17 -15 12 0 -4 10 -1 19 8 22 8 3 14 -1 14 -9 0 -7 8 -16 18 -18 16 -4 16
-5 0 -6 -10 0 -18 -8 -18 -16 0 -24 17 -18 39 14 23 32 27 46 10 35 -7 -4 -10
-1 -7 7 2 7 20 17 39 23 l34 9 -30 7 c-25 6 -26 8 -7 9 30 1 24 23 -9 31 l-24
6 23 8 c17 6 22 13 19 27 -4 16 -1 19 16 15 12 -3 16 -3 10 0 -15 6 -18 34 -4
34 10 0 21 -24 21 -46 0 -8 -7 -14 -15 -14 -8 0 -15 -8 -15 -17 0 -13 3 -14
12 -5 7 7 22 12 35 12 26 0 30 21 8 40 -8 7 -15 20 -15 29 1 13 5 11 19 -7 30
-35 75 -4 51 36 -8 15 -9 14 -10 -5 0 -13 -6 -23 -14 -23 -17 0 -29 27 -15 36
6 3 8 12 5 20 -3 9 2 14 14 14 21 0 27 15 10 25 -15 9 -40 -14 -40 -36 0 -11
-6 -19 -14 -19 -9 0 -12 10 -10 31 3 21 0 28 -9 24 -6 -4 -3 1 7 9 11 9 26 16
33 16 7 0 13 6 13 14 0 7 8 16 18 20 9 3 23 9 31 12 10 5 13 1 9 -14 -4 -12 3
-30 18 -47 26 -30 30 -45 14 -45 -5 0 -10 -8 -10 -17 -1 -16 -2 -16 -15 1 -15
20 -15 20 -15 0 0 -12 13 -27 32 -39 29 -16 30 -19 12 -25 -17 -6 -17 -8 6
-15 14 -4 30 -14 36 -23 14 -19 49 -11 48 11 -1 9 1 17 5 17 4 0 7 9 7 20 0
16 -7 20 -31 19 -16 -1 -23 -3 -14 -6 11 -3 15 -11 12 -24 -7 -27 -24 -23 -51
12 -24 29 -21 34 21 30 12 -2 17 5 17 23 0 17 -6 26 -16 26 -8 0 -12 -4 -9
-10 3 -5 2 -10 -3 -10 -14 0 -21 48 -8 54 7 3 7 5 -1 5 -7 1 -13 5 -13 11 0 5
7 7 15 4 8 -4 15 -2 15 4 0 5 -6 12 -14 15 -18 7 -16 26 7 60 9 15 17 31 17
37 0 20 15 9 28 -20 8 -17 18 -30 23 -30 6 0 7 5 4 10 -9 14 8 13 23 -2 9 -9
12 -7 12 10 0 12 -6 22 -13 22 -8 0 -22 9 -33 21 -12 13 -27 19 -41 16 -30 -6
-29 0 7 35 33 31 37 44 18 51 -7 3 -3 6 10 6 12 1 25 -6 28 -14 5 -11 10 -12
27 -4 17 10 19 9 14 -5 -4 -9 -4 -23 0 -32 4 -12 8 -11 17 7 6 12 20 27 31 33
11 6 22 12 24 13 2 2 -1 9 -7 16 -14 16 -6 27 19 27 10 0 22 7 26 15 10 17 53
9 53 -11 0 -7 12 -25 27 -39 15 -14 22 -25 15 -25 -10 0 -10 -4 2 -15 18 -18
27 -19 24 -2 -2 6 3 11 10 9 30 -6 57 50 28 61 -7 3 -16 15 -19 26 -3 12 -1
19 4 15 5 -3 9 2 9 10 0 9 8 16 17 16 14 0 12 6 -11 26 -23 22 -30 24 -37 13
-6 -10 -8 -6 -7 14 2 25 18 40 18 16 0 -18 53 0 72 24 15 19 18 20 18 5 0 -26
12 -22 39 11 23 28 57 32 47 6 -3 -9 6 -13 30 -12 37 1 47 24 20 46 -7 6 -14
29 -14 51 -1 40 -37 120 -55 120 -5 0 -16 8 -23 17 -12 17 -13 17 -20 0 -3
-10 -1 -30 5 -44 6 -14 9 -28 5 -32 -4 -3 -9 -1 -11 5 -2 7 -14 10 -26 7 -21
-4 -20 -3 3 12 24 16 25 16 2 11 -17 -3 -32 5 -56 29 -19 19 -31 36 -28 40 4
3 -1 3 -11 -1 -12 -4 -17 -1 -17 11 0 9 -6 15 -12 13 -7 -3 -13 -13 -13 -24 0
-23 -28 -26 -33 -3 -2 10 10 26 28 39 16 12 28 25 25 30 -3 5 -1 11 5 15 6 4
7 12 3 18 -4 7 1 5 12 -3 10 -8 20 -14 22 -12 1 1 4 -1 5 -5 1 -5 13 -17 27
-27 14 -11 30 -23 35 -27 6 -5 -2 -19 -18 -34 -18 -17 -22 -25 -12 -25 8 0 18
5 21 10 4 6 14 9 22 8 30 -5 23 18 -19 69 -24 29 -58 72 -76 97 -23 33 -37 44
-50 40 -13 -5 -14 -4 -3 4 11 8 10 14 -4 36 -10 14 -26 26 -37 26 -15 0 -18 5
-13 20 4 12 2 20 -5 20 -6 0 -9 -4 -6 -9 8 -12 -21 -34 -34 -26 -6 4 -10 22
-8 40 2 27 5 32 15 23 17 -13 16 -8 -2 33 -12 29 -14 31 -15 11 0 -41 -18 -62
-52 -62 -43 0 -24 15 26 19 4 1 5 9 1 19 -12 28 -14 62 -4 62 5 0 9 4 9 10 0
5 -10 9 -22 7 -20 -2 -23 2 -23 38 0 29 -4 39 -14 37 -8 -2 -21 0 -29 3 -11 4
-12 8 -2 19 13 17 -4 61 -21 51 -5 -4 -9 1 -9 10 0 8 -11 32 -23 53 -57 90
-64 104 -49 100 4 -2 6 -6 5 -10 -1 -3 4 -9 12 -12 8 -3 15 -1 15 5 0 19 -21
49 -34 49 -8 0 -11 10 -9 27 3 32 -65 158 -85 158 -20 0 -32 27 -32 74 0 29
-9 59 -24 86 -14 23 -30 64 -36 91 -7 27 -18 69 -26 94 -27 88 -54 210 -54
245 0 20 -9 56 -20 79 -25 56 -45 290 -34 391 5 39 9 135 9 215 1 80 7 183 14
230 7 47 14 154 15 237 2 84 8 158 13 165 15 19 28 192 14 184 -7 -4 -11 1
-11 13 0 12 4 21 9 21 12 0 3 152 -10 164 -5 6 -9 2 -9 -10 0 -32 -8 -33 -55
-9 -37 20 -45 22 -56 9 -6 -8 -8 -14 -4 -14 4 0 1 -10 -7 -22 -21 -33 -31 -88
-15 -88 8 0 7 -3 -2 -9 -22 -14 9 -42 33 -29 23 13 46 -6 39 -32 -3 -11 -9
-20 -13 -20 -4 0 -10 -13 -13 -30 -5 -21 -12 -30 -27 -30 -11 0 -20 6 -20 13
0 12 -34 47 -46 47 -3 0 -3 -14 0 -30 4 -27 0 -32 -30 -45 -28 -11 -34 -19
-34 -43 0 -16 -7 -35 -15 -42 -9 -7 -13 -21 -10 -31 4 -11 0 -26 -10 -35 -12
-12 -14 -28 -10 -72 9 -81 13 -114 20 -137 5 -16 0 -24 -19 -35 -23 -12 -25
-18 -23 -69 2 -41 -1 -60 -13 -69 -8 -8 -10 -11 -3 -8 7 4 13 -3 15 -16 4 -27
-10 -78 -22 -78 -13 0 -21 -33 -10 -40 6 -4 -2 -19 -20 -39 -32 -33 -36 -43
-49 -119 -5 -24 -13 -48 -19 -54 -6 -6 -9 -23 -6 -37 6 -35 -9 -86 -26 -86
-10 0 -15 -13 -15 -45 -1 -50 11 -84 26 -75 5 4 9 -3 9 -13 0 -16 -5 -19 -22
-14 -13 3 -28 13 -35 21 -7 9 -12 12 -12 6 0 -5 6 -19 14 -29 20 -27 19 -39
-3 -34 -26 7 -40 -20 -48 -86 -4 -31 -10 -53 -14 -51 -4 3 -7 -13 -6 -34 0
-23 -6 -47 -15 -58 -9 -10 -14 -24 -12 -30 3 -7 -2 -16 -11 -19 -9 -3 -13 -10
-10 -15 3 -5 0 -9 -7 -9 -10 0 -10 -3 -1 -12 18 -18 15 -28 -8 -28 -11 0 -20
-4 -20 -10 0 -5 4 -10 9 -10 12 0 6 -79 -7 -92 -6 -6 -8 -17 -5 -24 3 -8 1
-14 -5 -14 -5 0 -7 -12 -4 -26 4 -21 2 -25 -8 -19 -10 6 -12 4 -7 -8 3 -9 2
-19 -3 -22 -6 -4 -10 -20 -10 -36 0 -38 -27 -70 -41 -48 -5 8 -9 20 -9 27 0 7
-5 10 -11 7 -6 -4 -8 -14 -4 -22 4 -13 3 -13 -9 -4 -11 9 -15 9 -19 -1 -2 -7
-8 -10 -11 -6 -4 3 3 17 15 29 14 14 23 35 23 51 -1 15 3 28 8 28 5 0 8 10 6
22 -2 14 4 26 17 33 16 8 19 16 14 40 -4 17 -7 23 -8 15 -1 -13 -2 -13 -11 0
-5 8 -10 22 -10 30 0 12 2 12 9 2 6 -11 9 -9 14 7 2 11 0 22 -7 24 -20 7 -46
-5 -46 -22 0 -13 -2 -13 -9 -2 -7 11 -9 11 -14 0 -5 -11 -8 -10 -17 4 -6 9
-21 27 -33 39 -12 11 -15 17 -7 13 8 -5 5 3 -8 17 -12 13 -19 28 -15 31 3 4 1
7 -5 7 -17 0 -15 19 3 37 9 8 13 23 10 32 -10 34 -14 259 -5 312 6 31 12 85
15 122 3 44 12 82 30 116 14 28 25 67 25 88 0 21 7 52 16 68 9 17 20 62 25
100 6 47 15 74 26 83 15 10 15 16 5 32 -7 12 -8 20 -2 20 5 0 10 7 10 15 0 9
6 26 14 38 8 12 29 78 46 147 39 159 76 283 100 340 11 25 29 85 40 134 12 49
36 125 55 171 19 45 41 115 49 155 9 40 27 91 41 112 14 21 30 61 35 88 5 28
16 62 25 77 8 16 19 35 24 43 4 8 22 42 39 75 17 33 44 87 62 120 50 96 100
242 100 294 0 30 9 62 25 93 26 48 51 142 64 243 5 33 15 74 24 90 8 17 29 84
47 150 17 66 42 147 55 180 13 33 26 76 28 95 6 51 35 158 56 210 24 57 56
169 71 241 6 30 22 87 36 125 47 130 82 239 104 324 34 130 99 333 114 355 8
11 17 40 21 64 4 24 23 74 42 112 33 65 34 69 19 98 -23 44 -20 59 15 68 28 8
31 12 35 57 2 27 10 57 19 66 8 9 15 29 15 43 0 30 27 104 46 127 7 8 16 33
19 55 4 22 15 48 23 58 9 10 15 32 14 51 -2 22 9 56 31 98 19 36 36 83 39 104
3 22 20 61 37 87 30 44 35 47 75 47 50 0 118 -39 136 -79 8 -15 14 -21 17 -13
6 15 23 16 23 1 0 -6 8 -18 17 -27 16 -16 16 -16 10 1 -4 11 -2 17 8 17 8 0
15 -6 16 -12 0 -7 2 -20 4 -29 2 -11 -3 -15 -14 -12 -11 3 -18 -1 -18 -10 0
-12 6 -13 28 -5 18 6 26 15 22 24 -8 22 4 17 32 -13 20 -22 25 -24 25 -10 0
15 5 19 27 16 4 0 10 7 13 16 5 13 11 11 40 -15 18 -16 38 -30 44 -30 6 -1 2
-8 -9 -18 -11 -9 -22 -33 -23 -52 -2 -19 -10 -46 -19 -59 -8 -13 -10 -20 -4
-17 7 5 11 -2 11 -18 0 -13 -5 -26 -11 -28 -5 -2 -11 -19 -11 -38 0 -19 -5
-43 -9 -52 -6 -10 -5 -19 1 -23 6 -4 5 -12 -4 -20 -8 -8 -17 -33 -21 -55 -4
-22 -10 -40 -13 -40 -4 0 -8 -15 -9 -32 -3 -43 -9 -78 -18 -103 -14 -40 -67
-181 -76 -203 -5 -13 -9 -32 -9 -42 0 -11 -5 -20 -11 -20 -6 0 -9 -6 -6 -14 7
-16 -12 -82 -41 -146 -21 -47 -40 -121 -45 -180 -3 -33 -8 -49 -27 -95 -12
-28 -18 -85 -9 -85 17 0 6 -70 -15 -92 -31 -33 -49 -78 -47 -116 2 -26 -2 -35
-17 -39 -20 -5 -36 -49 -22 -58 4 -3 4 -24 -1 -48 -8 -43 -15 -63 -51 -146
-35 -80 -61 -194 -62 -271 -1 -67 1 -75 19 -78 11 -3 23 -9 27 -15 4 -7 14 -2
26 13 l19 24 12 -22 c14 -26 33 -28 51 -7 15 18 20 18 45 -1 11 -8 20 -24 20
-37 1 -12 6 -31 12 -42 11 -20 9 -83 -3 -94 -4 -3 -9 0 -11 7 -3 6 -9 12 -15
12 -5 0 -19 10 -30 23 -11 12 -16 16 -13 9 4 -7 0 -19 -10 -25 -15 -12 -15
-14 3 -35 11 -12 27 -22 37 -22 14 0 16 -7 13 -35 -4 -35 11 -46 37 -27 17 12
29 103 14 112 -4 3 -4 12 0 19 13 21 34 2 28 -25 -5 -26 8 -42 16 -21 10 26
-5 65 -29 76 -20 9 -23 16 -19 41 3 17 2 36 -2 43 -4 7 -8 17 -9 22 0 6 -2 16
-2 23 -2 10 -7 9 -19 -4 -17 -17 -18 -17 -22 1 -4 23 35 54 69 55 23 1 23 2 5
10 -11 5 -15 9 -8 9 6 1 18 4 26 7 10 4 15 -2 15 -20 0 -14 -4 -26 -8 -26 -5
0 -6 -9 -3 -20 4 -16 7 -17 19 -5 8 7 14 23 14 35 0 16 4 20 16 16 9 -3 22 -6
30 -6 11 0 12 -4 4 -19 -5 -11 -10 -31 -10 -45 0 -14 -5 -26 -11 -26 -5 0 -8
-4 -4 -10 3 -5 12 -7 20 -4 9 4 12 0 8 -14 -2 -11 0 -23 6 -26 6 -4 8 -19 5
-34 -4 -18 -2 -23 3 -14 10 13 43 7 43 -8 0 -4 -11 -11 -24 -14 -27 -7 -42
-47 -27 -74 9 -15 10 -14 11 5 0 27 44 43 63 24 9 -9 7 -10 -8 -5 -18 7 -18 6
-7 -9 8 -9 11 -21 7 -28 -6 -8 -9 -8 -15 1 -5 8 -9 8 -13 -3 -3 -8 3 -24 14
-35 23 -26 24 -48 3 -56 -24 -9 -25 -8 -18 19 4 16 2 25 -6 25 -6 0 -8 5 -5
10 3 6 -6 15 -20 20 -21 8 -30 6 -47 -10 -12 -11 -25 -20 -29 -20 -4 0 -9 -8
-13 -17 -3 -10 -9 -24 -12 -31 -7 -16 62 -8 83 10 13 10 15 9 12 -7 -3 -13
-14 -21 -32 -23 -26 -3 -26 -4 -12 -25 8 -12 15 -29 15 -38 0 -17 28 -34 38
-24 3 3 1 5 -4 5 -16 0 -11 43 8 62 23 23 25 22 31 -2 4 -14 10 -18 22 -14 15
6 16 4 5 -15 -9 -17 -9 -26 1 -38 11 -13 10 -18 -8 -32 -11 -10 -24 -27 -27
-39 -4 -12 -12 -22 -17 -22 -5 0 -9 -7 -9 -15 0 -8 -4 -15 -9 -15 -5 0 -17 -3
-27 -7 -13 -5 -16 -3 -11 10 5 13 1 17 -14 17 -15 0 -20 -5 -17 -22 2 -19 9
-23 35 -21 17 2 35 -2 38 -7 3 -6 16 -10 29 -10 25 0 56 -28 56 -50 0 -7 -7
-22 -17 -32 -14 -15 -14 -24 -5 -54 11 -36 7 -64 -8 -64 -5 0 -8 20 -8 45 0
24 -4 49 -7 56 -4 6 -2 15 5 19 9 5 9 9 1 14 -6 4 -15 -3 -20 -16 -6 -13 -10
-18 -10 -13 -1 12 -61 13 -80 1 -12 -8 -11 -11 3 -22 10 -7 24 -10 32 -7 8 3
14 -1 14 -11 0 -9 -7 -19 -15 -22 -25 -10 -17 -22 11 -16 25 5 26 3 22 -26 -3
-20 0 -33 8 -36 7 -3 20 -19 29 -37 9 -17 12 -29 7 -25 -5 3 -15 -1 -22 -9 -7
-8 -19 -15 -26 -15 -11 0 -12 -4 -2 -19 9 -15 9 -23 -2 -36 -13 -15 -12 -17 5
-13 14 3 19 11 18 26 -2 13 1 21 6 18 5 -3 11 1 15 9 3 8 10 15 16 15 13 0 13
-57 0 -65 -18 -11 -11 -35 10 -35 18 0 20 -6 18 -37 -3 -34 -1 -38 18 -35 15
2 24 -4 29 -20 4 -13 8 -26 10 -30 1 -5 3 -12 4 -18 0 -5 10 -10 21 -10 11 0
20 -5 20 -11 0 -7 8 -18 18 -25 14 -11 14 -13 2 -14 -13 0 -13 -1 0 -10 12 -8
9 -10 -11 -10 -20 0 -28 6 -33 25 -4 14 -13 25 -21 25 -8 0 -15 7 -15 15 0 8
-4 15 -9 15 -6 0 -8 -18 -5 -40 4 -30 1 -42 -11 -46 -21 -8 -19 -43 3 -51 28
-11 42 -30 42 -60 1 -21 3 -24 10 -13 5 9 22 16 42 15 31 0 33 -2 33 -35 0
-37 25 -94 33 -72 2 6 13 12 25 12 21 0 21 -1 -3 -18 -16 -10 -24 -24 -22 -35
2 -10 -4 -24 -14 -31 -13 -10 -14 -15 -4 -21 7 -4 16 -2 21 6 6 9 9 10 9 2 0
-19 -20 -26 -36 -12 -19 16 -30 4 -14 -16 7 -8 9 -15 6 -15 -4 0 0 -7 8 -16
20 -19 21 -35 2 -28 -14 5 -30 -32 -17 -38 5 -2 11 -18 14 -35 5 -27 3 -33
-11 -33 -9 0 -23 -4 -30 -9 -12 -7 -12 -12 -1 -30 8 -11 19 -21 26 -21 19 0
16 -17 -6 -39 -11 -11 -16 -23 -13 -26 4 -4 -3 -4 -15 -1 -18 6 -21 4 -16 -14
3 -13 11 -19 19 -16 8 3 14 -1 14 -8 0 -7 6 -18 13 -25 11 -8 16 -3 27 23 16
41 53 62 71 40 10 -12 9 -13 -7 -8 -15 5 -16 4 -4 -5 10 -7 19 -6 31 5 25 22
30 5 8 -29 -21 -36 -24 -52 -8 -42 11 7 40 -25 33 -36 -2 -4 5 -5 16 -2 12 3
18 8 15 11 -6 6 14 32 25 32 4 0 11 -11 14 -25 4 -14 13 -25 20 -25 8 0 16 -7
20 -15 3 -8 1 -15 -4 -15 -5 0 -7 -7 -4 -15 4 -8 10 -15 16 -15 5 0 7 4 4 9
-3 5 1 12 10 15 9 4 14 13 10 21 -3 9 0 15 8 15 8 0 16 -7 20 -15 3 -8 1 -15
-4 -15 -16 0 -11 -27 6 -34 8 -3 12 -10 9 -16 -3 -5 -1 -10 4 -10 6 0 11 -5
11 -11 0 -12 25 -39 37 -39 4 0 14 -13 21 -30 12 -26 11 -33 -5 -54 -10 -14
-21 -26 -25 -26 -14 0 18 -50 34 -50 9 0 19 -6 22 -12 3 -7 3 0 -1 15 -4 21
-2 28 8 27 34 -5 41 0 35 26 -5 17 -3 23 4 19 14 -9 13 -65 -2 -66 -7 -1 1 -4
17 -8 25 -5 30 -11 30 -35 0 -23 -5 -30 -22 -31 -29 -2 -40 -12 -26 -26 13
-13 48 -8 48 8 0 24 16 25 35 3 12 -14 27 -21 38 -18 12 3 23 -2 31 -13 8 -15
8 -19 0 -19 -7 0 -5 -8 6 -20 10 -11 15 -26 11 -36 -4 -11 0 -18 14 -21 11 -3
17 -9 14 -15 -3 -5 0 -16 8 -25 11 -14 11 -16 -2 -8 -13 8 -13 7 -1 -8 19 -24
24 -22 41 16 11 23 15 27 18 15 2 -10 8 -18 13 -18 5 0 9 -10 8 -22 0 -13 -3
-17 -6 -10 -2 6 -9 10 -14 6 -14 -8 -11 -24 6 -24 8 0 15 -4 15 -9 0 -15 33
-23 41 -10 4 6 3 26 -2 43 -5 17 -9 32 -9 33 0 0 13 -4 29 -10 17 -6 28 -14
25 -18 -2 -4 5 -9 15 -12 14 -3 19 1 19 19 0 18 -6 24 -24 24 -15 0 -27 10
-38 32 -20 38 -20 42 -1 34 8 -3 15 -1 15 4 0 6 5 10 11 10 5 0 9 -3 7 -7 -2
-5 9 -20 24 -35 15 -15 29 -24 29 -20 1 4 2 12 3 17 1 11 9 15 31 15 8 0 12
-6 9 -14 -3 -7 3 -16 13 -20 13 -5 14 -9 4 -15 -10 -6 -9 -11 4 -25 18 -18 35
-21 35 -6 0 6 -4 10 -8 10 -15 0 -13 70 3 86 13 14 15 14 15 0 0 -20 16 -21
27 -3 4 8 23 17 41 20 27 6 32 4 32 -13 0 -11 7 -20 15 -20 8 0 20 -9 27 -20
13 -21 48 -28 48 -9 0 5 -4 8 -9 4 -19 -11 -24 18 -6 31 15 11 16 18 7 38 -6
14 -8 28 -3 30 11 7 21 -4 21 -24 0 -14 37 -40 55 -40 11 0 4 20 -11 35 -17
17 -12 65 7 65 6 0 6 -7 -2 -21 -9 -17 -7 -24 10 -40 14 -14 19 -27 15 -43 -5
-20 -2 -22 30 -18 22 3 36 0 36 -7 0 -6 -8 -10 -17 -8 -10 1 -18 -1 -18 -4 0
-3 -7 -14 -15 -24 -14 -17 -13 -18 3 -12 11 4 16 3 12 -3 -14 -23 -76 11 -67
38 5 17 -13 15 -28 -3 -10 -12 -10 -18 1 -31 11 -14 10 -18 -9 -33 -22 -16
-22 -17 -3 -18 12 -1 23 2 26 8 10 15 42 10 49 -8 6 -15 8 -15 16 -3 6 8 10
11 10 6 0 -5 7 -3 15 4 12 10 16 9 21 -4 4 -11 -1 -22 -12 -31 -12 -9 -14 -14
-6 -15 7 0 24 13 38 29 22 26 28 28 61 21 20 -5 41 -6 46 -3 6 3 7 1 3 -5 -6
-11 6 -16 27 -13 4 0 7 -3 7 -9 0 -5 7 -10 16 -10 14 0 14 -3 4 -15 -7 -8 -19
-15 -26 -15 -17 0 -17 0 2 -38 8 -18 21 -32 27 -32 7 0 6 -4 -3 -10 -10 -6
-11 -10 -2 -10 23 0 27 2 24 14 -9 29 -9 76 0 76 5 0 7 -4 4 -8 -3 -5 8 -16
25 -26 26 -15 31 -22 28 -42 0 -4 5 -11 13 -15 10 -7 10 -9 -2 -9 -12 -1 -11
-3 3 -11 21 -12 23 -44 2 -35 -22 8 -18 -17 5 -32 11 -7 20 -18 20 -25 0 -8
11 -19 25 -25 14 -6 25 -16 25 -22 0 -5 7 -10 15 -10 37 0 70 -71 45 -96 -15
-15 -1 -74 16 -67 8 3 25 -2 39 -11 14 -9 25 -13 25 -9 0 5 4 3 8 -3 4 -6 16
-16 27 -22 17 -10 17 -11 3 -12 -30 0 -1 -56 53 -102 41 -35 48 -45 43 -67 -5
-21 -4 -24 7 -14 10 11 17 4 35 -35 13 -26 23 -55 23 -64 1 -9 6 -20 11 -23 6
-3 10 -14 10 -23 0 -9 18 -46 40 -82 38 -62 51 -92 64 -152 4 -17 13 -28 24
-28 12 0 13 -3 5 -8 -9 -6 -9 -15 4 -37 44 -82 113 -227 113 -240 0 -9 4 -23
9 -33 5 -9 20 -43 32 -75 20 -50 21 -61 10 -80 -10 -15 -10 -22 -2 -25 6 -2
11 -12 11 -22 0 -10 5 -20 11 -22 6 -2 12 -27 13 -55 1 -28 8 -58 14 -66 7 -8
10 -23 6 -33 -4 -14 -3 -16 4 -5 13 18 32 5 32 -21 0 -13 5 -18 14 -15 19 7
41 -19 56 -68 17 -52 41 -102 60 -123 46 -51 60 -123 29 -143 -11 -7 -10 -9 3
-9 13 0 16 -7 13 -30 -2 -17 0 -28 4 -25 13 7 64 -64 57 -80 -3 -8 0 -17 5
-21 6 -4 8 -20 5 -37 -8 -38 17 -81 43 -72 11 3 24 -5 40 -26 21 -28 21 -32 7
-53 -14 -22 -13 -25 10 -45 13 -11 31 -21 39 -21 9 0 12 -6 8 -16 -5 -13 -7
-13 -14 -2 -15 23 -11 -10 5 -40 7 -15 12 -39 10 -54 -2 -24 0 -26 15 -16 14
8 23 5 47 -16 72 -65 85 -81 81 -103 -2 -13 2 -24 11 -28 9 -3 13 -14 10 -30
-3 -14 -1 -25 4 -25 5 0 6 -4 3 -10 -3 -6 1 -7 9 -4 9 3 16 1 16 -5 0 -6 -4
-11 -9 -11 -4 0 -7 -10 -6 -22 1 -13 3 -31 4 -40 0 -10 9 -18 19 -18 25 0 60
-39 66 -73 9 -51 17 -65 39 -71 39 -10 44 -7 63 36 17 39 19 76 20 437 0 361
-1 398 -18 430 -10 19 -18 48 -18 63 0 41 -20 168 -32 203 -30 91 -49 178 -39
188 15 15 14 38 -4 90 -16 48 -67 335 -85 484 -8 65 -9 102 -1 125 5 18 11 58
12 88 1 30 8 69 15 85 21 53 36 135 29 162 -3 15 -18 52 -33 83 -23 47 -27 70
-29 160 -1 58 -4 137 -7 175 -18 213 -18 372 -3 462 9 51 23 105 30 120 8 16
17 62 19 104 3 52 12 90 26 118 12 23 22 58 22 77 0 24 9 48 29 73 15 20 31
54 34 75 4 23 18 52 35 70 16 17 36 42 46 56 9 14 37 52 61 85 24 33 65 90 90
128 39 59 107 151 134 182 17 20 186 181 254 242 38 34 115 95 170 135 56 40
133 102 172 137 69 62 186 125 520 281 39 18 77 38 85 45 8 7 38 19 65 27 28
8 95 45 150 83 55 38 136 93 180 123 44 30 83 60 88 68 4 7 24 23 45 35 20 13
66 49 102 81 66 58 101 84 246 181 44 30 116 81 159 113 42 33 103 77 135 99
70 49 151 118 250 212 41 39 94 79 117 88 23 9 54 32 68 51 14 18 54 54 89 79
35 25 71 56 80 70 9 14 33 34 54 44 20 11 98 77 172 148 74 71 162 149 195
174 33 26 92 80 131 120 83 88 228 219 297 271 27 20 84 72 127 115 196 195
382 368 409 383 16 8 43 34 60 56 16 23 43 48 60 55 17 8 31 19 31 26 0 21 42
63 99 100 42 27 58 45 74 83 16 39 29 54 61 69 23 10 54 38 71 61 47 65 63 80
90 80 15 0 25 6 25 14 0 19 117 136 137 136 8 0 58 47 91 85 9 11 36 32 58 47
23 15 66 54 95 88 30 34 68 68 85 76 17 8 36 26 42 39 6 12 23 31 39 40 15 10
53 46 83 81 30 35 69 73 87 84 18 12 35 30 38 40 6 20 96 80 119 80 7 0 16 14
20 31 4 24 59 83 227 247 121 120 231 223 242 230 12 8 35 33 51 56 16 23 50
58 77 77 26 19 48 38 49 43 0 5 36 45 80 90 70 70 123 139 180 234 9 14 22 29
30 33 27 14 55 22 67 20 7 -1 10 4 7 13 -11 28 68 120 112 132 13 3 24 16 27
32 4 17 18 34 39 46 18 10 40 27 48 37 69 83 387 408 725 741 83 81 176 176
208 210 31 35 128 135 213 223 86 88 204 214 263 280 58 66 118 131 133 143
16 13 28 30 28 37 0 7 22 37 48 67 80 88 178 223 207 285 16 32 41 72 56 88
15 17 59 78 98 137 38 58 76 108 83 111 8 3 6 6 -5 6 -15 1 -16 4 -6 24 6 12
29 38 49 57 21 19 41 48 45 64 3 16 17 43 30 60 13 18 47 79 75 136 29 58 62
123 76 145 13 22 24 48 24 58 0 11 29 78 65 149 53 106 65 140 65 178 0 29 6
52 14 59 8 7 18 38 21 69 3 31 15 75 26 98 10 23 19 48 19 57 0 9 4 18 8 21 5
3 7 29 4 59 -3 41 1 66 17 102 11 26 21 57 21 69 0 28 13 47 26 38 36 -23 213
-352 253 -469 11 -32 35 -89 54 -128 19 -38 53 -124 76 -190 23 -66 48 -131
56 -145 42 -74 56 -116 51 -152 -4 -22 -2 -40 5 -43 6 -4 8 -13 6 -19 -3 -7 4
-18 14 -24 14 -9 19 -24 19 -61 0 -56 14 -101 48 -155 18 -29 25 -57 28 -109
2 -38 9 -86 14 -106 17 -57 33 -407 20 -431 -5 -9 -6 -58 -2 -110 5 -57 4
-121 -3 -164 -12 -80 -12 -97 -1 -144 6 -27 3 -40 -17 -70 -19 -28 -26 -55
-31 -112 -3 -41 -12 -96 -20 -123 -8 -26 -11 -49 -7 -52 4 -2 4 -33 -1 -67 -5
-35 -11 -81 -13 -103 -2 -22 -4 -44 -4 -48 -1 -5 -10 -5 -21 -2 -15 5 -20 2
-20 -12 0 -11 5 -24 11 -30 14 -14 2 -72 -16 -79 -14 -6 -39 -90 -34 -115 2
-8 -5 -31 -14 -51 -10 -23 -14 -54 -12 -82 5 -47 -12 -73 -40 -62 -9 3 -15 0
-15 -10 0 -8 6 -17 14 -20 19 -7 11 -79 -14 -114 -11 -15 -20 -35 -20 -43 0
-8 -11 -40 -25 -71 -27 -60 -34 -112 -13 -100 8 5 9 2 5 -10 -4 -10 -7 -27 -7
-38 0 -14 -5 -19 -17 -16 -10 3 -26 -3 -36 -12 -16 -15 -16 -19 -2 -30 20 -17
19 -24 -11 -71 -14 -22 -34 -75 -45 -117 -10 -41 -26 -86 -34 -99 -8 -12 -15
-31 -15 -41 0 -11 -9 -30 -19 -44 -11 -13 -23 -42 -26 -64 -4 -21 -13 -50 -20
-64 -49 -95 -67 -143 -81 -215 -2 -11 -13 -28 -25 -37 -13 -11 -32 -54 -50
-115 -16 -53 -46 -126 -66 -162 -25 -44 -37 -79 -37 -106 -1 -36 -4 -40 -25
-39 -19 1 -28 -8 -43 -44 -11 -24 -17 -53 -15 -64 4 -13 -21 -74 -70 -171 -41
-83 -77 -162 -79 -176 -3 -14 -16 -48 -30 -76 -15 -27 -33 -72 -41 -100 -8
-27 -25 -63 -36 -79 -11 -16 -33 -66 -48 -110 -19 -59 -33 -84 -50 -93 -16 -8
-24 -22 -25 -42 -1 -16 -32 -91 -69 -168 -38 -76 -67 -142 -66 -146 1 -8 -70
-155 -105 -217 -8 -14 -26 -50 -40 -80 -13 -30 -45 -89 -69 -130 -31 -53 -44
-87 -44 -115 -1 -46 -7 -57 -38 -73 -13 -7 -31 -37 -45 -73 -12 -34 -30 -64
-39 -66 -9 -3 -23 -29 -33 -63 -10 -33 -24 -64 -31 -70 -20 -17 -60 -89 -75
-135 -7 -22 -38 -85 -69 -140 -91 -164 -111 -207 -111 -232 0 -14 -14 -38 -34
-58 -19 -19 -51 -67 -71 -107 -45 -90 -101 -187 -124 -213 -10 -11 -28 -41
-40 -67 -12 -25 -33 -53 -46 -62 -13 -8 -26 -30 -30 -48 -7 -32 -52 -120 -85
-168 -9 -14 -33 -56 -52 -95 -19 -38 -39 -79 -45 -90 -6 -11 -30 -60 -54 -110
-23 -49 -48 -97 -54 -105 -7 -8 -25 -44 -40 -80 -15 -36 -35 -76 -44 -90 -10
-14 -23 -44 -29 -67 -7 -23 -23 -55 -36 -70 -12 -15 -37 -59 -55 -98 -18 -38
-43 -83 -56 -101 -13 -17 -31 -56 -40 -87 -9 -31 -21 -59 -26 -63 -5 -3 -20
-27 -34 -54 -13 -26 -40 -61 -58 -76 -19 -16 -45 -49 -57 -74 -37 -72 -72
-120 -83 -113 -6 3 -7 1 -3 -6 9 -13 -14 -111 -25 -111 -11 0 -55 -79 -69
-125 -7 -22 -21 -51 -30 -65 -10 -14 -37 -65 -60 -115 -23 -49 -53 -103 -66
-121 -13 -17 -24 -36 -24 -42 0 -14 -36 -78 -61 -110 -10 -13 -23 -40 -30 -60
-6 -20 -23 -50 -36 -66 -14 -16 -46 -72 -73 -125 -26 -53 -59 -107 -72 -121
-14 -14 -30 -41 -37 -60 -6 -19 -20 -48 -31 -65 -33 -48 -77 -147 -84 -187 -4
-21 -17 -45 -30 -55 -12 -10 -31 -40 -40 -66 -10 -26 -29 -55 -42 -64 -13 -8
-24 -22 -24 -29 0 -32 -64 -163 -82 -167 -12 -4 -18 -14 -18 -34 0 -29 -16
-58 -55 -103 -12 -14 -26 -38 -29 -54 -4 -16 -18 -38 -32 -48 -13 -11 -24 -26
-24 -33 0 -23 -101 -207 -160 -290 -31 -44 -61 -95 -68 -112 -6 -18 -24 -50
-40 -70 -16 -21 -41 -69 -57 -106 -15 -38 -38 -83 -50 -101 -12 -18 -28 -56
-34 -84 -7 -28 -19 -58 -26 -68 -12 -18 -15 -17 -66 6 -69 31 -89 48 -89 75 0
33 -41 66 -78 63 -17 -1 -30 -5 -30 -8 2 -22 -4 -40 -13 -40 -6 0 -8 8 -4 18
3 13 -4 28 -21 45 -15 15 -22 28 -15 28 6 1 17 2 24 3 7 1 11 13 9 31 -2 20
-23 49 -65 92 -34 34 -65 63 -69 63 -14 0 -8 -31 7 -36 8 -4 15 -12 15 -19 0
-8 9 -17 20 -20 22 -7 28 -35 8 -35 -14 -1 -58 -34 -58 -45 0 -3 4 -4 9 -1 5
3 22 3 39 0 34 -7 34 -27 0 -64 -21 -22 -21 -22 -1 -16 13 4 23 1 26 -8 8 -19
-3 -57 -14 -50 -5 3 -9 -2 -9 -11 0 -9 4 -13 10 -10 6 3 10 2 10 -3 0 -16 -13
-22 -25 -12 -8 7 -11 3 -11 -13 1 -12 7 -27 15 -33 11 -9 12 -17 3 -44 -15
-42 -15 -48 1 -26 11 15 13 14 15 -13 1 -17 -4 -47 -12 -66 -8 -19 -11 -35 -6
-35 9 0 27 -76 22 -94 -2 -5 3 -6 11 -3 18 7 50 -30 43 -49 -3 -8 1 -14 9 -14
8 0 15 -8 15 -17 0 -15 -2 -16 -10 -3 -7 11 -8 7 -4 -15 3 -21 -2 -45 -19 -77
-13 -26 -20 -45 -15 -42 13 9 9 -6 -7 -22 -8 -9 -19 -12 -25 -9 -5 3 -10 1
-10 -5 0 -6 -4 -9 -8 -6 -5 3 -9 -1 -9 -9 0 -8 5 -12 11 -9 6 3 4 0 -4 -8 -8
-7 -16 -22 -18 -33 -6 -37 -11 -44 -33 -40 -21 4 -21 4 -4 -15 10 -11 16 -21
14 -23 -2 -1 -13 -7 -24 -13 -24 -13 -28 -61 -5 -74 10 -7 11 -9 2 -10 -7 0
-11 -4 -7 -9 3 -6 -3 -15 -12 -21 -15 -8 -13 -9 12 -5 17 3 24 2 17 -1 -6 -3
-10 -10 -6 -15 3 -5 0 -9 -6 -9 -6 0 -9 -4 -6 -9 3 -5 -8 -14 -24 -20 -17 -5
-30 -13 -30 -17 0 -3 6 -4 13 -1 10 4 13 -2 9 -19 -3 -18 0 -24 13 -24 14 0
15 -3 5 -15 -7 -9 -24 -14 -39 -13 -21 2 -27 -2 -29 -21 -2 -13 0 -21 6 -17 5
3 13 -1 16 -10 9 -24 7 -54 -4 -54 -5 0 -7 -6 -4 -13 3 -8 -1 -14 -9 -14 -9 0
-12 7 -9 21 5 18 4 18 -11 5 -14 -12 -14 -17 -1 -36 8 -13 10 -23 5 -23 -10 0
-9 -25 2 -36 11 -11 8 -54 -3 -54 -5 0 -10 -11 -10 -24 0 -13 -7 -27 -15 -30
-9 -3 -21 -20 -27 -37 -6 -17 -13 -27 -17 -22 -10 13 -31 14 -31 1 0 -6 7 -19
15 -28 13 -15 13 -22 -1 -63 -8 -25 -22 -51 -30 -58 -8 -6 -14 -15 -14 -19 0
-4 -8 -25 -17 -46 -10 -22 -18 -43 -18 -49 -3 -30 -28 -82 -45 -93 -16 -10
-26 -9 -55 5 -32 15 -37 15 -51 1 -13 -12 -14 -20 -5 -37 7 -11 16 -21 22 -21
6 0 7 -5 4 -10 -10 -15 5 -51 17 -43 7 3 4 -4 -5 -17 -12 -18 -14 -27 -5 -37
8 -10 5 -13 -16 -13 -37 0 -70 -32 -61 -59 3 -12 11 -21 16 -21 6 0 7 -6 3
-13 -6 -9 -4 -9 8 1 10 8 19 9 22 4 3 -6 -1 -13 -10 -16 -8 -3 -14 -14 -13
-23 2 -10 -1 -28 -5 -40 -5 -17 -14 -21 -34 -19 -15 2 -22 1 -15 -1 7 -2 9
-11 6 -20 -4 -11 -2 -14 5 -9 7 4 12 2 12 -3 0 -6 -5 -11 -10 -11 -6 0 -8 -11
-4 -25 5 -19 2 -25 -10 -25 -9 0 -16 -6 -16 -13 0 -8 -8 -21 -19 -31 -11 -10
-16 -25 -14 -39 2 -12 -7 -44 -21 -70 -14 -26 -26 -54 -26 -61 0 -7 -11 -33
-23 -57 -13 -24 -32 -69 -41 -99 -10 -30 -27 -63 -38 -72 -11 -10 -17 -21 -14
-26 8 -13 -32 -92 -73 -147 -30 -38 -41 -63 -46 -105 -4 -30 -16 -67 -26 -82
-11 -14 -19 -32 -19 -40 0 -8 -4 -18 -9 -24 -20 -19 -138 -307 -144 -351 -3
-15 -9 -27 -15 -26 -6 1 -16 -12 -24 -29 -7 -18 -37 -81 -65 -141 -29 -59 -53
-113 -53 -120 0 -6 -11 -34 -24 -62 -74 -157 -96 -214 -96 -252 0 -24 -7 -50
-18 -64 -19 -24 -30 -44 -84 -154 -17 -32 -38 -70 -49 -83 -10 -14 -19 -40
-19 -58 0 -21 -29 -91 -81 -196 -44 -90 -87 -192 -95 -227 -9 -36 -26 -78 -40
-94 -13 -16 -24 -35 -24 -43 0 -30 -42 -140 -59 -154 -10 -9 -21 -31 -25 -51
-3 -19 -15 -50 -25 -70 -10 -19 -26 -63 -35 -97 -8 -34 -25 -75 -36 -90 -11
-15 -30 -56 -44 -92 -13 -36 -35 -85 -49 -110 -13 -25 -32 -67 -42 -95 -10
-27 -27 -61 -37 -74 -12 -16 -18 -41 -18 -75 0 -45 -4 -56 -30 -81 -16 -16
-30 -35 -30 -43 0 -8 -10 -27 -21 -44 -12 -16 -24 -53 -28 -81 -5 -46 -10 -55
-44 -76 -35 -23 -37 -28 -36 -70 2 -56 -8 -92 -31 -108 -11 -8 -19 -31 -22
-63 -4 -39 -12 -59 -35 -83 -17 -18 -33 -40 -36 -50 -5 -12 -17 -17 -42 -17
-34 0 -46 -12 -24 -26 6 -3 17 -21 25 -39 12 -29 11 -41 -2 -87 -9 -29 -26
-71 -39 -93 -20 -35 -60 -133 -137 -335 -11 -30 -36 -86 -54 -124 -19 -37 -34
-76 -34 -86 0 -9 -9 -28 -19 -41 -10 -14 -31 -61 -45 -104 -15 -44 -33 -93
-41 -110 -7 -16 -23 -52 -34 -80 -11 -27 -31 -72 -45 -99 -15 -27 -26 -61 -26
-75 0 -23 -47 -135 -105 -251 -13 -25 -32 -74 -43 -110 -21 -70 -73 -183 -95
-209 -8 -9 -20 -38 -27 -66 -7 -27 -21 -61 -30 -75 -17 -25 -29 -58 -50 -140
-7 -25 -25 -67 -42 -94 -16 -27 -30 -58 -30 -70 -1 -32 -28 -125 -38 -131 -5
-3 -16 -29 -25 -58 -9 -28 -46 -109 -81 -179 -35 -69 -64 -132 -64 -140 0 -7
-27 -67 -59 -134 -33 -66 -65 -140 -71 -165 -7 -24 -16 -49 -20 -54 -5 -6 -21
-44 -36 -85 -28 -79 -56 -139 -119 -255 -20 -38 -48 -97 -60 -130 -56 -146
-71 -182 -87 -205 -10 -13 -18 -40 -18 -59 0 -42 -12 -81 -55 -181 -18 -41
-36 -86 -40 -100 -4 -14 -29 -70 -56 -125 -26 -55 -55 -127 -63 -159 -9 -33
-22 -66 -30 -75 -8 -9 -18 -36 -22 -61 -4 -24 -38 -104 -75 -177 -40 -78 -71
-153 -75 -181 -4 -26 -29 -92 -56 -146 -26 -55 -57 -134 -67 -176 -11 -42 -36
-103 -55 -136 -20 -32 -36 -64 -36 -71 0 -21 -73 -188 -91 -208 -9 -11 -21
-38 -24 -60 -4 -22 -24 -74 -45 -115 -20 -41 -40 -92 -44 -113 -4 -21 -22 -72
-41 -112 -18 -40 -41 -100 -50 -132 -9 -32 -34 -95 -56 -140 -21 -46 -39 -96
-39 -112 0 -17 -16 -57 -35 -90 -26 -44 -35 -71 -35 -105 0 -37 -4 -48 -25
-62 -15 -10 -29 -33 -36 -58 -6 -22 -31 -78 -55 -124 -25 -46 -42 -87 -39 -92
10 -16 -14 -98 -45 -149 -16 -28 -36 -74 -44 -103 -41 -148 -79 -234 -105
-243 -18 -5 -21 -15 -21 -62 0 -43 -5 -61 -23 -83 -13 -15 -34 -61 -47 -101
-13 -41 -29 -83 -37 -94 -7 -11 -13 -28 -13 -38 0 -11 -10 -40 -23 -66 -13
-25 -27 -59 -31 -76 -6 -25 -32 -87 -86 -210 -30 -66 -60 -151 -60 -167 0 -27
-80 -260 -96 -278 -15 -18 -78 -178 -104 -265 -31 -102 -52 -157 -86 -231 -19
-39 -34 -75 -34 -81 0 -12 -87 -207 -111 -248 -10 -16 -20 -56 -22 -87 -3 -43
-14 -73 -39 -116 -47 -78 -58 -114 -58 -186 0 -51 -4 -63 -24 -81 -12 -11 -40
-59 -61 -107 -35 -80 -37 -92 -31 -147 l7 -61 -31 0 c-33 0 -50 -25 -50 -78
-1 -15 -19 -79 -41 -142 -22 -63 -47 -144 -56 -180 -8 -36 -33 -103 -54 -149
-28 -60 -39 -97 -39 -131 0 -33 -5 -52 -19 -64 -11 -10 -21 -36 -24 -62 -3
-31 -17 -63 -47 -105 -39 -56 -41 -62 -30 -89 11 -25 9 -33 -9 -56 -12 -15
-21 -36 -21 -48 0 -11 -8 -34 -18 -51 -10 -16 -24 -52 -32 -78 -7 -26 -26 -64
-41 -84 -23 -28 -29 -46 -29 -82 0 -35 -7 -56 -25 -81 -14 -19 -25 -46 -25
-62 0 -15 -11 -53 -25 -84 -14 -31 -28 -75 -32 -97 -4 -24 -18 -52 -35 -70
-24 -26 -28 -38 -28 -87 0 -47 -5 -64 -28 -96 -33 -46 -70 -146 -82 -224 -5
-33 -31 -98 -64 -166 -45 -88 -56 -120 -56 -159 0 -37 -8 -63 -36 -112 -19
-35 -42 -86 -50 -113 -9 -30 -24 -56 -40 -67 -65 -46 -70 -52 -54 -63 8 -5 19
-11 24 -13 16 -5 -4 -75 -29 -106 -18 -20 -25 -41 -25 -70 0 -23 -9 -55 -20
-73 -11 -18 -20 -41 -20 -51 0 -10 -6 -28 -14 -40 -8 -12 -17 -38 -21 -57 -4
-19 -23 -64 -43 -99 l-35 -63 15879 3 c8733 2 15951 6 16039 9 153 5 160 6
157 25 -2 11 -3 101 -2 200 1 171 0 182 -19 200 -27 23 -29 77 -3 73 13 -2 18
5 20 35 3 35 -11 52 -21 25 -2 -7 -8 -9 -13 -5 -5 4 -3 11 4 16 9 5 11 48 7
167 -2 87 0 177 4 199 5 22 12 114 14 204 5 159 5 164 -16 182 l-22 19 25 19
25 20 0 608 c0 334 -2 916 -5 1293 -2 377 -1 690 2 696 4 6 8 126 9 267 2 141
6 257 9 257 9 0 28 226 30 340 0 47 7 154 15 239 8 85 15 181 15 213 0 33 4
68 10 78 5 10 17 101 26 202 9 100 20 221 25 268 18 171 29 317 29 393 0 58 5
88 20 117 22 43 26 70 9 70 -5 0 -7 5 -4 10 4 6 10 8 15 5 5 -3 9 21 9 54 0
34 6 71 15 89 19 37 31 86 56 229 10 62 24 121 29 131 6 11 13 82 17 158 3 77
8 146 11 154 3 8 6 51 6 96 1 47 7 87 14 96 9 11 10 17 1 26 -7 7 -12 91 -14
249 -1 131 -7 265 -14 298 -9 52 -14 135 -21 400 -1 33 -8 72 -15 87 -8 15
-16 69 -19 120 -2 51 -9 113 -14 138 -17 79 -41 342 -41 445 2 206 26 383 67
479 14 33 34 93 44 133 10 40 36 104 59 143 23 42 40 85 40 103 0 51 27 136
54 176 15 22 26 51 26 72 1 18 8 52 16 74 47 127 58 172 63 276 1 9 11 29 24
45 27 35 46 97 56 186 5 38 15 73 24 82 8 9 18 30 22 48 3 18 12 62 20 98 30
146 36 177 44 225 10 56 19 84 34 103 6 7 11 36 12 65 1 29 10 70 20 92 9 22
19 60 20 85 3 44 13 175 36 461 6 81 8 209 5 285 -6 142 -8 539 -3 1034 1 151
-2 325 -7 385 -4 61 -10 128 -11 150 -7 95 -24 222 -33 246 -6 14 -15 70 -22
125 -7 54 -20 117 -31 139 -10 22 -38 117 -63 210 -24 94 -53 197 -65 230 -19
57 -44 146 -70 245 -6 25 -22 97 -35 160 -13 63 -30 138 -39 165 -8 28 -20 79
-27 115 -6 36 -27 110 -46 165 -19 55 -39 123 -45 150 -5 28 -30 91 -54 141
-25 50 -45 103 -45 118 0 15 -19 60 -43 99 -44 73 -113 212 -173 347 -58 132
-105 212 -170 288 -17 21 -37 53 -44 72 -7 19 -27 55 -44 80 -32 49 -159 179
-219 224 -39 30 -177 188 -211 241 -38 59 -204 251 -272 314 -150 139 -207
199 -259 271 -87 122 -451 476 -730 710 -43 36 -89 77 -104 91 -14 14 -46 38
-71 53 -25 16 -83 66 -130 111 -47 46 -125 113 -175 149 -49 36 -110 84 -135
108 -51 48 -124 109 -185 152 -39 28 -103 85 -235 210 -36 34 -85 77 -110 96
-25 19 -67 56 -95 81 -27 25 -90 79 -138 120 -49 41 -116 98 -150 127 -34 28
-89 71 -122 94 -33 22 -85 64 -116 92 -127 116 -197 174 -268 221 -87 57 -172
121 -243 183 -27 23 -52 42 -57 42 -4 0 -21 12 -37 28 -37 35 -113 83 -189
121 -33 17 -78 47 -100 66 -22 20 -51 43 -65 51 -14 8 -54 33 -90 55 -36 23
-175 100 -310 171 -135 71 -254 138 -265 148 -11 10 -43 32 -71 49 -27 16 -63
44 -78 62 -15 17 -42 37 -59 44 -18 7 -48 30 -67 50 -19 20 -64 58 -100 83
-36 26 -92 69 -125 95 -33 27 -89 73 -125 101 -36 29 -71 60 -79 70 -7 9 -31
26 -52 38 -22 12 -48 37 -59 55 -10 18 -33 38 -49 45 -17 7 -90 72 -163 143
-73 72 -153 143 -178 159 -25 16 -51 37 -58 47 -7 11 -41 38 -75 61 -34 23
-73 52 -87 66 -35 34 -78 66 -125 92 -22 12 -53 33 -70 47 -54 44 -167 124
-249 176 -91 58 -222 167 -365 303 -55 52 -113 98 -136 107 -22 9 -72 46 -111
84 -39 37 -109 92 -155 121 -46 29 -113 75 -149 102 -36 27 -90 62 -120 76
-55 27 -187 112 -225 144 -11 10 -38 23 -60 30 -22 7 -60 29 -85 49 -25 21
-65 48 -90 62 -25 13 -68 41 -97 61 -28 21 -69 46 -90 55 -21 9 -45 22 -53 29
-8 6 -46 28 -85 48 -38 20 -76 43 -85 51 -8 7 -44 28 -80 45 -103 49 -222 118
-250 145 -18 17 -37 25 -61 25 -28 0 -43 8 -76 43 -22 23 -67 60 -99 81 -33
22 -76 59 -98 83 -21 24 -64 57 -95 72 -31 16 -65 38 -75 50 -11 12 -39 30
-62 40 -23 11 -50 31 -59 45 -10 14 -22 26 -29 26 -6 0 -36 19 -66 42 -49 37
-118 85 -218 151 -18 12 -58 43 -89 69 -31 27 -88 69 -127 95 -39 25 -84 55
-99 66 -90 60 -115 75 -144 85 -36 12 -148 89 -177 121 -10 11 -34 23 -53 27
-19 4 -54 25 -81 48 -60 54 -95 78 -165 114 -57 30 -77 45 -202 154 -36 31
-85 66 -109 77 -40 20 -72 45 -210 163 -27 24 -66 50 -86 59 -19 9 -63 40 -95
70 -102 92 -198 173 -240 202 -84 58 -111 79 -155 121 -25 24 -58 51 -75 59
-16 8 -59 44 -95 79 -36 36 -76 71 -90 78 -63 33 -200 128 -250 172 -30 27
-71 58 -90 68 -19 10 -48 32 -64 49 -17 17 -34 31 -38 31 -12 0 -154 92 -196
126 -19 15 -50 36 -70 47 -20 10 -50 29 -67 42 -16 12 -41 26 -55 30 -14 4
-41 22 -60 40 -19 18 -55 43 -80 55 -25 12 -54 30 -65 40 -11 9 -34 20 -52 23
-18 4 -53 22 -78 42 -26 19 -52 35 -60 35 -7 0 -19 7 -26 16 -17 21 -216 120
-260 129 -19 4 -61 22 -94 40 -33 18 -85 43 -115 56 -30 12 -66 32 -80 44 -14
13 -41 31 -60 40 -19 10 -61 38 -95 64 -33 25 -93 66 -133 91 -67 42 -97 63
-237 169 -27 21 -81 55 -120 76 -38 21 -79 46 -90 56 -11 10 -32 22 -46 27
-14 6 -66 39 -115 75 -49 35 -103 72 -119 81 -17 9 -48 27 -70 39 -31 17 -43
32 -55 67 -8 25 -23 59 -32 76 -9 17 -14 41 -11 53 4 16 -5 35 -35 70 -23 27
-48 67 -55 89 -13 38 -85 136 -187 258 -25 29 -148 151 -275 271 -296 280
-370 354 -427 428 -25 33 -67 79 -92 102 -25 23 -63 64 -83 91 -76 98 -147
179 -212 242 -37 36 -83 92 -103 125 -21 33 -92 116 -160 184 -68 68 -139 148
-158 176 -35 52 -178 209 -402 440 -64 66 -131 139 -148 163 -17 24 -66 78
-108 121 -42 42 -104 108 -137 147 -79 91 -257 264 -272 264 -7 0 -15 15 -18
34 -4 18 -21 51 -38 71 -17 21 -47 64 -67 96 -34 56 -71 103 -224 283 -81 95
-347 361 -426 427 -30 25 -83 62 -117 83 -35 20 -69 46 -76 57 -20 28 -150
117 -184 125 -15 4 -40 15 -55 25 -14 11 -33 19 -41 19 -30 0 -36 26 -35 149
1 103 5 127 20 147 18 23 18 24 -2 44 -18 18 -19 24 -8 37 11 14 13 13 19 -8
7 -24 7 -24 8 2 1 14 11 37 24 51 16 17 21 31 16 49 -3 13 -2 29 2 34 4 6 15
51 24 100 9 50 23 115 32 145 18 64 20 96 9 130 -4 16 -4 20 2 12 16 -23 32
37 30 108 -2 50 1 64 11 62 9 -2 12 4 8 19 -3 12 0 28 9 36 20 21 17 35 -6 28
-12 -4 -20 -2 -20 4 0 16 23 55 38 64 19 12 15 37 -5 31 -13 -4 -11 0 5 12 12
9 22 25 22 35 0 10 4 20 9 24 13 8 12 127 -1 143 -6 7 -8 16 -4 19 4 4 11 1
16 -7 7 -10 9 -3 7 25 -1 22 3 46 8 54 5 9 5 16 -2 18 -5 2 0 24 13 52 17 34
28 88 39 182 9 74 17 141 20 149 2 8 5 36 6 61 2 29 10 56 24 72 19 24 31 28
130 38 87 9 121 18 160 39 28 15 63 31 80 35 16 3 50 21 75 39 25 17 63 40 85
50 22 10 65 35 96 56 31 21 73 47 95 58 21 11 84 63 139 116 54 53 104 96 110
96 6 0 70 61 141 136 139 147 410 420 590 592 60 59 126 127 144 152 32 41 61
76 144 172 53 60 144 187 152 210 3 12 11 26 16 32 5 6 23 27 41 48 32 36 59
84 116 209 16 36 37 71 45 78 8 7 23 34 32 59 10 26 26 59 36 74 10 15 26 51
34 79 9 29 29 65 45 81 16 16 29 40 29 53 0 41 30 115 66 162 19 24 34 55 34
69 0 13 15 56 34 96 64 139 106 236 106 244 0 5 11 31 25 58 14 27 25 55 25
62 0 8 13 39 29 71 16 32 39 87 51 123 13 36 33 87 46 114 13 28 24 58 24 69
0 10 13 55 29 100 16 45 34 109 41 142 10 53 54 177 96 273 8 18 14 47 14 65
0 18 7 45 16 62 8 16 19 61 24 100 5 38 18 88 30 110 13 26 20 58 20 96 0 31
6 72 14 90 13 33 19 103 32 379 4 69 8 148 11 175 6 56 7 751 1 805 -2 23 -8
34 -16 32 -8 -1 -11 2 -7 8 3 5 2 25 -4 43 -5 17 -18 59 -28 92 -10 32 -30 72
-45 87 -16 16 -28 36 -28 44 0 42 -235 246 -330 286 -25 11 -54 23 -65 29 -29
13 -155 29 -275 35 -99 4 -115 2 -275 -40 -93 -24 -195 -51 -225 -60 -30 -10
-102 -30 -160 -46 -58 -16 -118 -34 -135 -40 -39 -15 -123 -21 -130 -10 -9 14
14 90 29 96 7 3 19 24 26 47 8 23 17 46 22 52 4 5 8 16 8 25 0 9 12 27 26 41
14 13 23 31 21 40 -6 21 16 145 24 139 8 -6 39 20 39 32 0 6 -7 8 -15 4 -17
-6 -19 2 -5 24 9 13 11 13 20 0 7 -11 10 -8 10 17 0 36 18 83 32 83 5 0 8 6 7
13 -3 18 12 67 21 67 4 0 13 14 19 31 7 20 15 28 23 24 7 -4 5 0 -4 8 -19 15
-24 47 -8 47 6 0 6 9 1 23 -5 12 -15 21 -23 19 -11 -3 -11 -1 0 10 7 7 20 13
30 13 10 0 25 17 36 40 11 22 23 48 28 57 4 10 8 25 8 33 0 9 12 26 27 39 25
22 26 26 25 131 l-1 109 30 18 c20 12 29 26 29 44 0 33 21 104 30 104 4 0 5
23 2 50 -4 48 -3 50 20 50 14 0 33 9 44 21 17 19 17 22 3 32 -8 7 -18 22 -21
35 -5 17 -2 22 14 22 20 0 20 1 5 18 -18 20 -22 42 -8 42 5 0 7 27 4 61 -5 49
-3 63 10 70 12 7 14 22 11 70 -2 36 1 68 9 80 10 16 9 21 -3 29 -13 8 -13 10
1 10 9 0 24 8 33 19 16 17 16 19 -6 25 -22 6 -22 7 -5 17 15 9 17 18 12 48
-12 60 -14 81 -5 76 8 -5 22 83 21 129 -1 17 7 38 19 51 16 17 22 38 24 86 2
35 7 72 11 82 4 11 1 33 -7 55 -32 80 -37 102 -23 109 20 12 63 115 63 153 1
40 28 68 75 77 17 4 32 14 34 25 3 10 9 18 14 18 5 0 9 8 9 18 0 33 24 69 53
80 24 9 29 16 25 37 -3 14 -1 25 3 25 5 0 9 -4 9 -10 0 -5 9 -10 20 -10 17 0
18 3 9 19 -7 11 -9 26 -4 37 5 11 7 22 7 27 -3 12 15 8 27 -6 6 -8 7 -17 3
-22 -4 -4 3 -1 16 6 12 8 22 17 22 21 0 5 -10 8 -22 8 -26 1 -61 24 -51 33 3
4 1 13 -5 20 -7 8 -9 17 -5 20 3 4 -1 15 -9 24 -24 28 -30 53 -12 53 8 0 20
-14 26 -32 l11 -32 11 44 11 45 -36 16 c-20 10 -39 26 -42 39 -7 27 14 22 28
-7 11 -26 60 -40 49 -14 -3 9 -9 24 -11 34 -3 9 -10 17 -15 17 -5 0 -6 5 -2
11 3 6 18 8 33 5 14 -4 22 -3 16 1 -5 5 -17 22 -27 40 -16 30 -15 31 3 28 10
-2 21 0 24 6 4 5 1 9 -6 9 -7 0 -9 10 -6 29 3 15 1 33 -5 39 -7 7 -7 19 0 40
5 15 6 35 2 43 -6 12 -21 94 -20 109 0 3 -6 27 -14 54 -15 49 -12 68 17 104 8
11 13 9 23 -10 l12 -23 7 28 c4 15 19 36 33 47 20 17 25 28 24 68 0 27 7 57
16 72 9 14 21 43 27 65 9 38 12 40 46 40 41 0 72 23 96 69 13 25 13 38 3 87
-11 52 -19 65 -70 111 -31 29 -72 62 -91 74 -35 20 -37 28 -24 77 10 37 -17
28 -31 -11 l-10 -27 -6 27 c-3 17 -1 26 6 25 6 -1 9 10 8 26 -4 28 -3 28 34
21 32 -6 36 -5 31 10 -5 12 -1 16 17 16 19 0 22 5 21 29 -1 21 2 28 12 24 7
-3 13 0 13 6 0 6 11 17 25 23 14 6 24 16 22 22 -2 6 3 26 10 45 11 26 12 36 2
41 -6 4 -8 13 -5 19 4 6 1 18 -7 26 -18 17 -20 85 -3 85 6 0 13 -15 14 -32 3
-35 41 -86 43 -58 1 8 2 22 3 30 2 8 3 25 4 38 2 18 7 22 33 20 42 -4 48 17
10 36 -39 20 -40 20 -34 -5 9 -34 -27 -20 -48 19 -21 36 -17 38 35 17 21 -9
36 -11 36 -5 0 15 26 12 40 -5 7 -8 22 -15 34 -14 11 0 15 3 9 6 -7 2 -13 17
-13 33 0 16 -7 30 -15 34 -23 8 -18 25 11 36 41 16 23 35 -34 36 -58 1 -77 13
-96 59 -19 44 -19 146 -1 138 29 -10 38 9 14 28 -13 10 -21 20 -18 24 9 9 59
-16 58 -29 -3 -27 2 -37 14 -29 6 4 20 6 30 5 23 -4 22 2 -5 30 -17 17 -24 37
-26 77 -1 30 3 60 9 67 6 8 8 26 4 44 -6 26 -4 31 10 28 9 -2 24 7 32 20 14
21 14 22 -2 16 -10 -4 -21 -1 -26 7 -15 23 -10 39 12 39 17 0 19 4 13 23 -18
59 -24 66 -64 77 -22 6 -38 15 -35 19 2 5 -2 23 -11 40 -10 20 -14 42 -9 59 3
15 7 36 7 47 0 11 5 34 10 52 8 28 14 32 58 38 28 4 50 11 50 16 0 5 -18 18
-39 29 -45 22 -66 46 -32 35 25 -8 26 -2 5 30 -9 14 -20 22 -25 19 -5 -3 -9 1
-9 9 0 26 14 28 32 5 17 -23 17 -23 7 12 -12 40 -13 44 -11 88 2 27 6 32 28
32 14 0 23 4 19 9 -14 23 20 21 41 -3 14 -14 27 -26 29 -26 12 0 3 19 -20 44
-13 14 -20 26 -15 26 6 0 10 5 10 10 0 6 -15 10 -32 10 -42 0 -54 8 -68 45
-16 43 -24 173 -12 188 6 7 10 29 9 49 -2 28 -5 34 -14 26 -9 -7 -17 -7 -26 0
-7 6 -22 11 -32 11 -49 0 -80 12 -101 38 -27 32 -31 63 -9 63 8 0 15 5 15 10
0 6 8 10 19 10 10 0 25 7 32 16 11 14 10 18 -6 31 -11 8 -19 20 -17 28 3 16
-34 39 -48 30 -6 -3 -10 -2 -10 4 0 5 -9 12 -19 16 -19 6 -26 45 -8 45 4 0 5
5 2 10 -3 6 1 10 9 10 8 0 18 -9 21 -20 11 -33 25 -22 22 17 -1 28 2 38 13 38
9 0 15 9 15 25 0 25 16 50 33 50 4 0 19 11 32 26 20 20 22 27 11 34 -12 7 -8
18 19 60 29 45 31 54 21 77 -14 30 2 60 18 34 5 -7 13 -11 19 -7 14 8 3 46
-14 46 -8 0 -14 5 -14 11 0 5 5 7 10 4 6 -3 10 1 10 9 0 8 -4 18 -10 21 -5 3
-10 16 -10 29 0 12 -10 32 -22 44 -27 25 -78 40 -78 23 0 -19 -39 7 -52 34 -5
12 -22 26 -37 29 -40 9 -52 20 -61 62 -8 32 -6 41 7 52 9 6 13 12 9 12 -5 0
-3 7 4 15 11 13 15 13 21 3 6 -9 9 -9 9 -1 0 21 -17 23 -40 3 -18 -16 -26 -17
-48 -7 -51 22 -146 140 -100 125 7 -3 12 -13 10 -23 -2 -10 2 -15 10 -13 8 3
12 18 10 41 -2 20 1 37 6 37 13 0 23 -26 16 -43 -3 -8 2 -20 11 -27 8 -7 15
-8 15 -2 0 5 10 12 21 15 15 4 19 3 12 -4 -7 -7 -1 -20 17 -40 38 -39 47 -37
21 7 -15 24 -21 52 -21 91 0 45 -3 54 -15 49 -19 -7 -19 -1 1 18 11 12 13 20
5 33 -6 11 -11 13 -11 5 0 -7 -5 -10 -10 -7 -7 4 -7 13 0 26 12 22 -4 64 -21
54 -5 -4 -8 -1 -7 5 2 6 -14 17 -34 24 -21 8 -36 10 -33 6 11 -17 -53 -20
-102 -5 -25 8 -38 48 -23 75 5 10 10 30 10 44 0 14 9 31 21 40 12 8 18 19 15
24 -3 5 1 15 9 22 10 9 15 9 15 1 0 -6 7 -11 15 -11 9 0 12 6 8 18 -7 19 -22
32 -38 32 -5 0 -3 -5 5 -10 8 -5 11 -10 6 -10 -5 0 -18 7 -28 17 -16 14 -18
14 -18 1 0 -9 -7 -18 -15 -22 -24 -9 -45 4 -44 28 0 21 0 21 9 -1 12 -30 26
-29 34 1 4 18 13 24 33 24 16 0 31 -5 36 -12 9 -14 3 22 -8 48 -5 11 -4 26 3
37 9 14 8 24 -3 45 -15 29 -11 50 4 25 7 -11 11 -9 21 8 9 18 8 27 -4 45 -12
20 -13 29 -1 62 11 33 11 43 -1 66 -8 15 -13 37 -11 50 1 18 -5 25 -29 32 -29
9 -64 59 -50 73 3 3 -1 17 -8 32 -7 14 -11 32 -9 39 3 7 -1 10 -10 6 -27 -10
-112 48 -106 72 1 5 -3 21 -9 36 -11 27 -22 29 -57 9 -14 -7 -45 -9 -46 -2 -6
50 -10 65 -20 72 -7 4 -9 14 -4 25 9 24 13 114 4 114 -3 0 -4 11 -1 25 3 16 0
25 -8 25 -7 0 -10 -7 -6 -15 3 -8 1 -15 -3 -15 -9 0 -21 24 -21 41 0 5 6 9 13
9 8 0 13 19 14 61 1 44 6 66 18 78 10 9 15 11 12 5 -4 -6 3 -20 15 -30 21 -19
21 -19 13 1 -10 26 -27 76 -32 93 -2 8 -12 16 -23 19 -11 3 -20 8 -21 12 0 3
-2 15 -3 26 -2 11 -6 31 -10 43 -7 20 -5 23 11 20 10 -2 17 -10 15 -16 -1 -7
5 -12 13 -12 16 0 17 33 2 57 -4 7 1 14 13 18 18 6 18 8 5 21 -8 9 -15 29 -15
45 0 26 4 29 40 35 22 4 40 9 40 11 0 11 -53 93 -60 93 -5 0 -11 13 -15 30 -4
16 -10 32 -15 35 -4 3 -6 -4 -3 -15 5 -19 4 -19 -27 -4 -17 9 -34 22 -37 30
-3 8 -13 14 -22 14 -14 1 -14 2 2 14 18 14 21 72 5 83 -5 2 -8 1 -7 -4 6 -33
-2 -42 -27 -33 -35 14 -44 13 -44 -5 0 -8 -4 -15 -9 -15 -24 0 -79 26 -105 49
-17 16 -30 22 -33 15 -2 -7 -13 -10 -23 -7 -13 3 -30 -5 -50 -26 l-31 -31 -38
20 c-31 15 -40 27 -45 55 -4 19 -11 35 -16 35 -6 0 -10 5 -10 11 0 6 9 9 20 6
11 -3 22 -1 25 3 7 12 -30 31 -40 22 -5 -4 -6 -2 -2 3 3 6 1 17 -4 25 -7 12
-10 11 -15 -7 -7 -27 -17 -29 -34 -8 -9 11 -16 13 -24 5 -13 -13 -26 -13 -26
0 0 6 7 10 15 10 8 0 15 1 15 3 0 15 -43 114 -56 128 -16 18 -16 20 1 39 12
13 31 20 54 20 34 1 35 2 17 15 -11 8 -16 15 -11 15 4 0 0 9 -11 21 -12 13
-25 18 -40 15 -17 -5 -32 4 -64 38 -23 24 -41 46 -40 48 1 1 -9 24 -24 50 -14
26 -26 53 -26 61 0 22 32 31 45 13 10 -13 12 -12 22 2 5 9 31 23 57 31 l46 13
1 47 c0 25 2 61 3 78 2 20 -2 37 -11 45 -8 6 -30 42 -49 79 -30 61 -38 69 -69
75 -19 3 -41 2 -48 -3 -6 -6 -40 -16 -73 -23 -54 -11 -66 -17 -90 -51 -23 -31
-36 -39 -61 -39 -28 0 -36 6 -60 47 -15 25 -29 41 -31 35 -5 -17 -39 -15 -45
2 -3 8 -1 16 4 18 6 2 4 11 -4 22 -13 17 -14 16 -29 -14 -9 -18 -18 -27 -22
-21 -4 5 -13 8 -21 5 -10 -4 -18 3 -25 21 -15 39 -4 48 49 40 45 -7 46 -7 28
13 -10 11 -28 23 -40 26 -28 7 -57 55 -57 94 0 16 -13 47 -29 70 -28 37 -33
40 -68 35 -29 -4 -43 0 -60 17 -27 24 -30 71 -8 94 8 8 15 19 15 25 0 6 -7 11
-15 11 -21 0 -19 36 3 45 15 6 13 9 -10 21 -16 8 -28 23 -28 34 0 11 -4 20 -9
20 -5 0 -7 9 -4 20 3 11 12 20 20 20 13 0 13 3 -1 24 -9 14 -13 32 -10 40 6
17 32 29 45 20 14 -8 11 9 -7 34 -8 12 -25 22 -37 22 -12 0 -40 16 -62 35 -21
20 -45 33 -52 31 -7 -3 -13 -2 -13 3 0 5 -9 11 -21 14 -15 4 -23 0 -26 -14 -3
-10 -8 -17 -12 -15 -3 2 -51 1 -105 -3 -102 -8 -134 -2 -178 37 -16 14 -18 13
-18 -2 0 -29 -35 -14 -38 17 -3 26 11 37 23 17 3 -5 14 -10 23 -10 13 0 10 6
-12 27 -28 26 -28 27 -8 34 23 9 21 33 -4 43 -8 3 -14 13 -14 23 0 15 -2 16
-10 3 -8 -12 -10 -12 -16 4 -4 10 -2 21 4 25 7 4 3 21 -13 50 -14 24 -25 48
-24 55 0 6 4 2 9 -9 6 -13 9 -15 9 -5 0 8 -3 21 -8 29 -7 12 -13 12 -24 3 -11
-9 -21 -8 -48 5 -43 21 -114 77 -156 123 -18 19 -32 29 -33 23 0 -7 -5 -13
-11 -13 -5 0 -8 4 -4 9 9 15 -13 23 -32 12 -16 -9 -16 -10 -2 -11 9 0 19 -7
23 -15 4 -12 0 -14 -19 -11 -14 3 -27 0 -31 -5 -3 -6 -15 -4 -30 6 -21 14 -24
14 -24 0 0 -8 14 -29 30 -47 33 -34 33 -43 0 -33 -12 4 -26 20 -32 36 -11 31
-34 35 -32 5 1 -9 -3 -16 -10 -16 -12 1 -66 45 -66 55 0 4 -9 20 -20 36 -18
24 -19 31 -8 51 7 13 17 26 22 29 4 4 5 17 1 29 -10 30 16 22 32 -10 6 -13 19
-27 27 -32 9 -5 16 -15 16 -22 0 -7 10 -21 21 -32 l22 -19 -16 30 c-9 17 -25
44 -36 60 -12 17 -21 43 -21 59 0 22 -3 27 -17 22 -16 -6 -16 -6 0 12 16 17
16 21 1 50 -18 36 -29 42 -21 11 8 -32 -2 -52 -19 -38 -16 13 -19 33 -5 24 6
-3 6 6 1 25 -10 36 -4 60 16 60 9 0 14 11 14 30 0 35 -2 36 -34 14 -24 -15
-44 -5 -32 15 3 5 -1 14 -9 21 -12 10 -15 9 -15 -4 0 -13 -5 -16 -22 -10 -33
10 -67 36 -73 57 -4 9 -10 17 -15 17 -5 0 -13 12 -18 28 -9 24 -10 25 -11 5
-1 -34 -31 -29 -33 5 -1 15 -2 36 -3 47 -1 11 7 28 17 38 24 24 23 28 -17 67
-19 19 -35 42 -35 51 0 10 -6 19 -12 21 -7 3 -13 15 -13 27 0 17 -9 26 -33 35
-20 6 -41 24 -50 41 -10 17 -18 32 -20 34 -5 9 -137 8 -154 -1 -12 -5 -18 -5
-18 1 0 6 -23 9 -55 7 -30 -2 -52 0 -50 5 9 13 -18 60 -31 55 -8 -3 -11 0 -7
10 3 8 -1 14 -8 14 -7 0 -22 8 -33 17 -12 10 -18 14 -14 9 15 -18 -15 -36 -59
-36 -40 0 -43 -2 -33 -19 12 -24 13 -34 1 -27 -5 3 -8 -6 -8 -19 0 -14 4 -25
10 -25 8 0 8 -3 1 -10 -14 -14 -64 8 -64 28 0 12 3 12 15 2 23 -19 19 12 -5
36 -39 39 -48 44 -53 31 -8 -23 4 -39 19 -26 11 9 14 8 14 -5 0 -28 -37 -18
-48 13 -6 16 -8 32 -5 35 4 3 1 6 -5 6 -7 0 -12 7 -12 15 0 18 -1 18 45 -1 20
-8 39 -13 41 -11 9 8 -22 57 -33 52 -7 -2 -13 2 -13 11 0 11 -4 12 -19 4 -25
-13 -71 3 -71 25 0 8 -4 15 -10 15 -5 0 -10 11 -10 25 0 26 -9 32 -26 15 -12
-12 -57 33 -46 46 4 4 0 5 -9 2 -24 -9 -45 7 -31 24 9 11 7 14 -9 15 -22 2
-25 -19 -5 -37 8 -6 12 -18 9 -26 -4 -10 0 -15 8 -14 34 5 49 -1 49 -20 0 -11
-4 -20 -10 -20 -5 0 -7 -7 -4 -15 4 -8 16 -15 29 -15 12 0 27 -6 33 -13 9 -11
3 -13 -29 -11 -22 1 -42 4 -45 7 -10 9 -34 -4 -34 -19 0 -8 -7 -14 -15 -14 -8
0 -15 -7 -15 -15 0 -23 -66 -46 -112 -38 -39 6 -40 5 -28 -16 10 -21 9 -22
-12 -19 -18 2 -23 10 -24 33 -1 55 -2 57 -24 45 -11 -6 -18 -15 -15 -21 4 -5
3 -8 -2 -7 -8 3 -13 -5 -13 -23 0 -5 5 -7 10 -4 9 6 40 -16 40 -28 0 -3 -15
-3 -32 -1 -18 1 -36 3 -40 3 -5 1 -8 7 -8 15 0 8 -8 17 -17 20 -15 6 -15 8 -3
17 11 7 6 8 -17 4 -21 -4 -33 -3 -33 4 0 9 28 16 52 12 5 0 7 2 7 7 -3 19 2
33 10 28 5 -4 7 3 4 14 -5 19 -23 29 -23 12 0 -4 -10 -13 -22 -21 -19 -12 -23
-11 -35 5 -18 24 -16 33 5 32 9 0 32 3 50 6 27 4 38 0 55 -19 24 -26 77 -44
77 -26 0 6 -12 17 -27 25 l-28 14 28 11 c16 6 33 11 38 11 11 0 12 20 2 20
-71 5 -113 4 -113 -2 0 -5 -9 -3 -19 4 -15 9 -25 9 -45 0 -14 -6 -26 -7 -26
-2 0 10 -66 7 -77 -4 -3 -3 -1 -6 6 -6 7 0 10 -4 6 -10 -4 -6 -15 -6 -31 0
-14 6 -36 10 -50 10 -13 0 -24 4 -24 9 0 4 -12 6 -27 4 -22 -4 -25 -2 -13 6
13 9 13 11 -1 11 -9 0 -16 7 -16 15 0 8 4 12 9 9 4 -3 8 0 8 6 0 7 9 9 23 6
12 -3 16 -3 10 0 -20 9 -15 27 5 22 28 -8 44 16 21 30 -11 7 -19 8 -19 2 0 -5
-10 -14 -21 -21 -12 -6 -19 -7 -15 -1 9 15 -16 31 -60 38 -44 7 -64 20 -64 41
0 8 -4 12 -9 8 -5 -3 -12 -1 -15 4 -4 5 -2 12 3 15 35 22 -24 113 -81 125 -20
4 -33 13 -32 22 0 8 4 38 8 67 6 51 6 52 -18 52 -14 0 -28 -4 -31 -10 -3 -5
-21 -10 -40 -10 -25 0 -46 11 -86 45 -55 47 -79 56 -79 30 0 -22 -33 -18 -64
6 -22 17 -26 27 -21 50 4 18 2 29 -4 29 -6 0 -11 -4 -11 -10 0 -21 -28 -9 -32
15 -3 14 -1 25 3 25 5 0 6 7 3 15 -5 12 -10 13 -20 4 -11 -9 -16 -5 -25 15 -7
14 -16 26 -20 26 -4 0 -14 3 -22 6 -22 8 -31 -28 -11 -43 10 -7 14 -16 10 -20
-4 -5 -17 3 -28 17 -11 14 -30 26 -42 28 -54 7 -71 6 -69 -5 1 -6 -4 -17 -12
-23 -13 -11 -15 -7 -13 23 2 19 5 35 8 35 20 -1 21 4 4 16 -23 18 -44 4 -37
-24 5 -19 4 -19 -23 -6 -15 8 -31 13 -36 10 -4 -3 -18 12 -30 32 -12 21 -24
32 -26 26 -2 -6 -9 -9 -15 -7 -7 2 -24 6 -39 9 -27 6 -27 6 -16 -21 7 -16 18
-35 25 -44 18 -21 16 -34 -2 -19 -12 10 -15 10 -15 -3 0 -27 -20 -30 -40 -5
-17 21 -18 22 -17 3 2 -16 -3 -19 -25 -17 -21 2 -28 -2 -29 -15 0 -14 -2 -15
-6 -3 -4 8 -23 38 -45 67 -21 29 -38 55 -38 59 0 4 -8 16 -17 27 -17 19 -17
20 5 15 15 -4 22 -2 22 8 0 8 5 14 11 14 7 0 17 7 23 15 9 12 18 13 46 5 51
-15 56 -13 58 20 2 23 -1 28 -13 24 -8 -4 -15 -10 -15 -14 0 -11 -44 -3 -48 8
-1 5 -9 18 -17 28 -13 17 -14 16 -9 -16 4 -28 1 -37 -15 -47 -18 -11 -19 -11
-14 5 6 15 5 15 -10 3 -9 -7 -17 -20 -17 -27 0 -8 -5 -14 -11 -14 -6 0 -8 8
-5 18 4 11 -2 22 -14 30 -17 11 -20 10 -20 -7 0 -17 -3 -18 -25 -8 -14 7 -25
17 -25 24 0 7 -9 17 -20 23 -23 13 -26 30 -5 30 27 0 -2 47 -70 115 -36 36
-70 65 -76 65 -8 0 -8 -5 1 -15 7 -8 19 -15 26 -15 8 0 14 -4 14 -10 0 -5 14
-23 30 -40 17 -17 30 -35 30 -41 0 -6 5 -7 10 -4 20 13 9 -38 -12 -55 -18 -14
-33 -17 -65 -13 -38 5 -46 2 -70 -24 -54 -58 -91 -63 -173 -26 -19 9 -48 18
-64 20 -16 1 -40 10 -54 19 -13 9 -33 14 -43 11 -10 -3 -21 -1 -24 3 -3 4 -14
6 -26 3 -12 -4 -25 0 -30 8 -15 24 -10 37 11 32 11 -3 20 -9 20 -14 0 -5 7 -6
16 -2 14 5 13 9 -7 24 l-24 19 43 0 c23 0 42 5 42 10 0 6 -4 10 -8 10 -14 0
-32 64 -26 90 l6 25 -21 -25 c-11 -14 -21 -33 -21 -44 0 -15 -2 -16 -15 -6
-13 11 -21 10 -43 0 -25 -12 -55 -14 -108 -6 -17 3 -25 18 -40 74 -2 8 -25 13
-64 14 -120 3 -136 5 -168 25 -32 20 -72 21 -72 1 0 -5 5 -6 10 -3 6 3 10 -1
10 -9 0 -18 2 -18 -92 -20 -80 -2 -128 15 -128 43 0 10 -10 27 -22 38 -62 58
-78 80 -72 99 7 18 6 18 -12 2 -16 -14 -21 -14 -32 -2 -15 16 -36 19 -27 4 4
-6 -4 -9 -17 -7 -19 2 -23 -3 -23 -25 0 -14 -4 -30 -9 -35 -5 -5 -7 -1 -3 10
4 9 2 17 -3 17 -6 0 -10 9 -10 19 0 21 -17 37 -27 27 -3 -3 0 -13 7 -21 8 -9
14 -38 14 -65 1 -42 4 -50 24 -55 23 -6 29 -20 13 -30 -5 -3 -15 1 -23 8 -24
24 -56 38 -63 27 -3 -5 -4 -14 0 -19 3 -5 1 -12 -4 -15 -5 -4 -12 -2 -16 4
-10 16 4 48 24 55 23 7 25 55 2 72 -30 23 -42 13 -14 -12 32 -28 21 -32 -31
-10 -33 14 -35 17 -21 31 8 8 15 21 14 27 0 8 -3 7 -6 -1 -4 -10 -13 -6 -34
14 -16 15 -29 22 -29 16 0 -7 4 -12 9 -12 5 0 11 -9 14 -20 7 -27 -9 -25 -40
6 -14 14 -23 19 -20 11 4 -11 1 -14 -9 -10 -7 3 -14 10 -14 15 0 6 -7 8 -15 5
-8 -4 -17 -2 -20 3 -4 6 -12 10 -18 10 -8 0 -8 -3 -2 -8 6 -4 12 -19 13 -34 3
-22 -1 -28 -16 -28 -14 0 -22 9 -27 30 -5 24 -12 30 -34 30 -15 0 -32 5 -37
10 -6 6 -34 13 -63 17 -46 5 -56 11 -87 49 -20 24 -33 47 -30 53 3 5 -1 12
-10 15 -23 9 -27 8 -20 -9 3 -10 -1 -15 -11 -15 -9 0 -21 -7 -28 -16 -9 -14
-16 -14 -33 -5 -13 7 -28 9 -34 5 -7 -5 -26 -7 -43 -6 -27 1 -28 0 -7 -8 12
-5 22 -14 22 -20 0 -6 -4 -8 -10 -5 -5 3 -10 1 -10 -4 0 -14 -36 -14 -61 -1
-14 8 -19 21 -19 49 0 21 -7 60 -15 87 -8 27 -15 63 -16 79 -1 17 -3 23 -6 14
-4 -16 -71 -28 -163 -30 -14 -1 -28 -6 -32 -12 -5 -8 -11 -7 -21 2 -11 9 -16
9 -19 0 -6 -17 -88 -1 -88 17 0 8 7 14 15 14 23 0 17 23 -11 43 -25 19 -84 16
-84 -4 0 -10 11 -12 53 -9 15 1 27 -3 27 -10 0 -19 -30 -23 -64 -6 -40 19 -55
21 -38 4 7 -7 12 -35 12 -64 0 -28 7 -71 15 -94 8 -23 15 -51 15 -62 0 -18 -4
-19 -37 -13 -56 10 -103 42 -103 70 0 12 -7 28 -15 35 -18 15 -20 -1 -3 -18 6
-6 8 -15 4 -19 -4 -4 -11 -1 -16 7 -5 8 -12 11 -15 8 -4 -4 2 -12 13 -19 16
-10 18 -18 11 -36 -5 -13 -5 -23 -1 -23 9 0 42 -58 42 -75 0 -7 -7 -18 -15
-25 -18 -15 -105 -21 -105 -7 0 14 -40 67 -51 67 -6 0 -5 -9 2 -22 11 -20 9
-20 -20 5 -23 19 -39 25 -56 21 -13 -3 -26 0 -30 7 -6 9 -2 11 13 7 17 -5 20
-1 20 23 -1 16 -7 29 -14 29 -7 0 -15 6 -17 13 -9 20 -28 -15 -22 -40 6 -26 2
-28 -27 -12 -19 10 -20 9 -15 -10 7 -29 -32 -119 -56 -127 -10 -3 -26 1 -36
10 -22 20 -41 20 -41 0 0 -8 -4 -12 -10 -9 -17 11 -12 48 5 41 14 -5 35 27 35
55 0 15 -70 11 -76 -5 -4 -12 -12 -13 -32 -5 -29 11 -72 4 -72 -11 0 -6 -7
-10 -15 -10 -8 0 -14 -8 -13 -17 4 -47 -2 -61 -22 -56 -11 3 -20 9 -20 14 0 5
-13 9 -29 9 -27 0 -31 4 -38 43 l-9 42 -59 0 c-55 0 -61 3 -73 28 -18 37 -6
97 19 97 11 0 19 4 19 9 0 9 -38 24 -54 21 -5 0 -27 2 -48 5 -28 5 -42 14 -52
33 l-14 27 -13 -28 c-10 -21 -19 -27 -44 -27 -40 0 -74 26 -113 85 -25 37 -29
52 -25 85 4 26 2 40 -5 40 -6 0 -9 7 -6 15 4 8 1 15 -5 15 -6 0 -11 -4 -11 -9
0 -6 -12 -3 -27 5 -34 17 -40 17 -49 3z m-4838 -1504 c19 -14 19 -14 0 -15
-27 0 -9 -16 28 -24 27 -7 28 -6 15 10 -13 16 -12 16 9 5 27 -14 27 -19 2 -46
-17 -18 -18 -24 -7 -39 11 -15 18 -16 34 -7 16 8 22 8 26 -3 4 -11 -8 -16 -46
-21 -29 -4 -60 -14 -70 -23 -34 -30 -99 27 -77 68 8 15 8 20 -2 20 -7 0 -14
11 -14 25 -1 14 3 25 10 24 29 -4 44 3 49 21 6 24 16 25 43 5z m11604 -537 c0
-9 3 -9 12 0 7 7 28 11 48 11 23 -1 27 -3 13 -6 -13 -2 -23 -9 -23 -14 0 -16
29 -22 44 -10 18 15 37 -8 30 -36 -3 -11 0 -24 7 -28 9 -6 11 -2 7 12 -5 18
-3 19 18 9 13 -6 24 -14 24 -18 0 -5 5 -8 11 -8 6 0 9 7 5 15 -4 10 1 15 14
15 25 0 25 -5 0 -30 -12 -12 -18 -25 -15 -29 2 -5 -2 -14 -10 -21 -9 -8 -15
-8 -15 -2 0 6 3 12 8 15 4 2 1 2 -7 0 -7 -2 -20 2 -27 8 -13 11 -16 7 -13 -17
1 -10 -35 -33 -43 -28 -5 3 -8 0 -8 -6 0 -6 -5 -8 -11 -4 -6 3 -9 15 -6 25 3
11 1 19 -4 19 -5 0 -9 -7 -9 -15 0 -9 -10 -15 -26 -15 -14 0 -23 -4 -20 -9 3
-5 -1 -12 -10 -15 -13 -5 -15 -1 -11 20 3 16 0 27 -9 31 -8 3 -11 9 -8 15 3 5
-3 4 -14 -3 -16 -10 -18 -16 -10 -26 17 -21 -7 -15 -27 7 -12 13 -15 27 -11
46 6 22 4 25 -9 20 -9 -3 -21 -6 -26 -6 -21 0 -8 -41 16 -50 14 -5 25 -12 25
-15 0 -7 -26 -35 -33 -35 -10 0 -56 98 -49 105 4 5 2 5 -5 2 -6 -4 -19 0 -27
9 -20 19 -22 42 -3 26 7 -6 25 -13 41 -16 24 -4 27 -2 23 14 -6 23 11 27 19 6
10 -25 36 -27 60 -5 13 12 21 26 17 32 -3 6 -1 7 5 3 6 -3 13 -2 17 4 9 14 25
13 25 -2z m1551 -1348 c22 -18 22 -19 5 -20 -20 0 -20 0 0 -20 31 -32 44 -49
44 -60 0 -5 6 -10 13 -10 6 -1 26 -13 44 -28 24 -21 29 -31 22 -42 -7 -13 -10
-12 -15 5 -4 17 -12 20 -51 16 -35 -2 -48 1 -55 13 -5 9 -15 16 -22 16 -7 0
-25 13 -40 29 -22 23 -27 36 -22 55 6 23 10 25 34 20 26 -7 27 -6 9 13 -16 18
-14 33 4 33 4 0 17 -9 30 -20z m-15664 -2307 c-4 -3 -2 -12 4 -19 11 -13 50
-114 44 -114 -2 0 -10 -3 -19 -6 -11 -4 -16 -1 -16 10 0 16 -12 21 -23 10 -4
-4 3 -15 15 -26 30 -25 16 -34 -21 -12 -41 24 -60 8 -30 -25 22 -23 19 -36 -9
-36 -10 0 -18 -10 -20 -23 -3 -19 -6 -21 -18 -11 -8 6 -17 9 -21 5 -3 -3 -1
-6 5 -6 7 0 12 -6 12 -14 0 -9 8 -12 25 -8 14 2 25 0 25 -4 0 -5 -20 -10 -45
-11 -25 -1 -45 3 -45 9 0 6 -9 8 -21 5 -15 -4 -18 -2 -10 7 6 7 8 16 4 20 -4
4 -1 11 7 16 8 5 12 11 9 14 -9 10 -28 -10 -34 -37 -6 -23 -4 -29 14 -34 25
-6 26 -11 4 -35 -15 -17 -15 -18 5 -18 12 0 22 4 22 9 0 6 12 9 28 8 21 -2 27
-7 27 -27 0 -14 3 -30 7 -36 4 -6 -2 -20 -13 -30 -20 -18 -20 -18 -10 9 10 27
-4 51 -18 30 -9 -14 -104 -10 -109 5 -5 17 -19 15 -19 -3 0 -8 5 -12 10 -8 5
3 6 -4 2 -17 -6 -18 -4 -21 6 -14 22 14 63 12 79 -4 13 -13 10 -14 -18 -10
-24 3 -29 2 -21 -8 13 -16 -8 -31 -24 -15 -8 8 -17 0 -34 -27 -13 -20 -21 -28
-18 -17 4 19 1 21 -35 20 -22 0 -40 -3 -40 -7 0 -5 13 -8 29 -8 29 0 29 -1 20
-29 -8 -23 -15 -27 -34 -23 -14 2 -25 10 -25 17 0 7 -6 16 -12 19 -10 5 -10 7
0 12 10 5 10 11 -3 30 -14 21 -14 27 -2 39 8 8 18 30 21 50 6 28 11 35 29 34
21 0 21 -1 3 -8 -19 -7 -19 -8 2 -13 13 -4 22 -2 22 5 0 20 -17 40 -28 33 -6
-4 -8 2 -5 14 7 26 11 25 55 -5 48 -32 61 -32 24 0 -16 14 -23 25 -15 25 8 0
4 6 -9 16 -23 16 -30 44 -12 44 6 0 13 -6 16 -14 3 -8 12 -17 20 -20 9 -3 12
-1 9 5 -4 5 -4 18 0 27 6 15 8 15 16 -3 6 -14 7 -5 5 29 -3 27 -10 52 -16 56
-7 4 -9 13 -6 19 4 6 12 9 17 6 5 -4 12 1 15 9 3 9 10 16 16 16 5 0 6 -5 2
-11 -4 -6 1 -9 12 -8 11 2 25 0 32 -4 12 -8 32 27 32 56 1 24 36 58 63 61 15
1 30 6 34 9 3 4 9 7 11 7 3 0 2 -3 -1 -7z m7474 -9995 c0 -10 2 -10 6 0 2 6 9
10 13 7 5 -3 7 -12 3 -21 -9 -25 18 -104 45 -124 13 -11 36 -20 51 -21 24 -1
23 -2 -9 -13 -19 -6 -41 -15 -47 -19 -10 -6 -11 -2 -3 17 9 25 -2 37 -15 16
-4 -6 -11 -7 -17 -4 -6 4 -8 2 -5 -3 4 -6 0 -16 -8 -23 -13 -11 -14 -10 -10 1
4 10 -3 15 -21 17 -21 2 -24 -1 -15 -11 6 -8 8 -16 6 -19 -3 -3 -1 -16 4 -30
7 -19 5 -27 -10 -36 -10 -7 -19 -8 -19 -3 0 5 6 12 13 15 6 3 3 4 -8 1 -11 -2
-27 0 -35 5 -13 8 -12 10 3 10 10 0 15 5 12 10 -9 14 8 13 23 -2 7 -7 12 -8
12 -2 0 11 -49 58 -51 49 -5 -21 -7 -26 -8 -35 0 -5 -6 -10 -12 -10 -6 0 -8 9
-4 20 4 11 2 20 -4 20 -18 0 -13 18 7 24 9 3 -1 3 -23 0 l-40 -5 24 17 c34 25
71 28 64 6 -4 -13 -3 -14 5 -3 5 7 14 11 19 8 5 -3 10 0 10 8 0 8 -6 15 -13
15 -20 0 -10 52 12 61 11 4 26 14 33 23 12 14 12 16 -2 11 -17 -7 -32 10 -22
25 9 14 35 12 36 -2z m8769 -2875 l14 -38 7 30 c6 28 7 28 8 5 l2 -25 10 23
c5 13 13 21 18 17 6 -3 7 -13 4 -22 -5 -13 -2 -15 11 -10 10 4 19 7 21 7 2 0
1 10 -2 23 l-5 22 17 -23 c19 -26 9 -47 -22 -47 -9 0 -17 -9 -18 -22 -1 -14 3
-19 12 -16 10 4 11 9 2 19 -7 8 -7 14 -1 14 18 0 34 -29 35 -65 1 -27 4 -34
16 -30 8 3 0 -8 -17 -25 -18 -16 -32 -35 -32 -41 0 -5 -5 -7 -10 -4 -6 4 -8
11 -5 16 6 9 -8 13 -32 10 -7 -1 -13 7 -13 18 0 11 -4 23 -10 26 -6 3 -7 -1
-4 -9 6 -17 -4 -20 -30 -10 -18 7 -23 74 -6 74 6 0 10 -9 10 -20 0 -17 3 -18
25 -8 18 8 22 15 15 22 -5 5 -10 19 -10 31 0 12 -3 16 -8 9 -11 -19 -55 -21
-59 -4 -4 12 -3 12 5 2 8 -11 10 -11 15 1 3 8 0 20 -6 26 -9 9 -8 11 7 5 16
-6 17 -3 11 24 -9 44 8 40 25 -5z m-96 -355 c-4 -6 -2 -13 4 -17 8 -5 7 -15
-2 -33 -8 -15 -11 -30 -8 -34 4 -4 2 -4 -4 -1 -19 11 -35 -55 -21 -85 5 -11 4
-18 -3 -18 -5 0 -10 -7 -10 -15 0 -17 -46 -39 -62 -29 -5 4 2 14 16 23 14 10
23 21 19 24 -3 4 -1 7 6 7 7 0 9 5 6 11 -5 6 -11 4 -19 -7 -7 -9 -27 -18 -45
-19 -35 -3 -53 -15 -33 -22 24 -9 12 -19 -18 -15 -16 2 -30 9 -30 14 0 5 -4 6
-10 3 -5 -3 -10 -2 -10 3 0 5 8 12 18 14 22 6 25 35 4 43 -19 7 -34 -4 -28
-21 3 -9 -2 -14 -14 -14 -14 0 -20 -7 -20 -21 0 -11 5 -17 10 -14 6 3 10 -4
10 -17 0 -17 -6 -23 -23 -24 -42 -3 -55 -9 -90 -40 -17 -15 -54 -34 -65 -34
-6 0 -8 9 -5 20 4 15 9 17 23 10 26 -14 35 17 10 32 -23 14 -26 34 -7 41 7 4
6 6 -4 6 -21 1 -33 30 -19 46 12 15 53 28 44 14 -3 -5 3 -9 14 -9 13 0 18 -7
18 -22 -1 -20 3 -23 28 -20 16 2 33 -3 37 -10 7 -10 9 -9 9 5 0 16 -15 21 -50
18 -11 -1 -10 3 4 14 11 8 23 15 28 15 4 0 8 7 8 15 0 9 9 15 21 15 15 0 19 4
15 16 -5 14 -4 15 8 5 11 -9 15 -7 19 11 4 12 4 24 2 27 -3 2 -5 -1 -5 -7 0
-7 -7 -12 -15 -12 -21 0 -19 17 4 23 11 2 25 -3 35 -14 9 -11 21 -19 28 -19 9
0 8 3 -2 10 -11 7 -11 10 -2 10 7 0 10 5 6 12 -5 8 0 9 14 6 17 -5 23 -1 27
15 5 19 13 22 53 22 39 1 47 4 45 19 -1 21 18 46 30 39 4 -2 4 -9 1 -15z
m-15180 -5271 c-4 -7 -3 -9 1 -4 5 4 19 0 32 -8 15 -10 23 -12 23 -4 0 8 4 8
15 -1 8 -6 19 -9 25 -5 5 3 13 -1 16 -9 3 -9 16 -16 28 -16 11 -1 32 -7 46
-15 14 -8 37 -14 52 -15 35 0 83 -73 67 -102 -6 -12 -6 -18 1 -18 5 0 10 6 11
13 0 6 5 2 11 -10 13 -27 21 -28 38 -7 12 13 16 12 36 -11 24 -28 31 -30 52
-13 8 7 12 7 12 -2 0 -7 7 -10 15 -6 8 3 14 2 14 -2 -3 -20 3 -21 23 -2 24 22
40 25 68 10 13 -7 19 -6 24 6 5 13 15 15 44 10 45 -7 77 -14 77 -16 0 0 28 -3
62 -5 35 -2 68 -7 74 -11 7 -4 26 -8 43 -10 52 -6 120 -26 147 -45 15 -10 55
-21 93 -25 37 -4 82 -14 100 -24 23 -11 41 -14 57 -8 22 7 23 7 5 -6 -24 -19
-12 -40 14 -24 16 10 22 8 39 -13 11 -13 20 -19 21 -12 0 7 15 10 48 6 63 -6
74 -6 96 -5 16 2 17 4 5 19 -15 18 -16 18 51 -3 14 -4 29 3 52 27 18 18 41 32
51 31 9 -2 17 0 17 5 0 7 124 13 311 15 36 0 76 -5 88 -11 15 -9 32 -9 58 -2
25 7 41 7 49 0 7 -6 17 -8 23 -5 13 8 267 10 279 2 6 -4 15 0 19 8 7 13 14 13
48 2 36 -13 59 -40 48 -58 -2 -5 8 -19 24 -33 29 -25 53 -32 53 -16 0 5 -6 12
-12 14 -8 4 -7 6 4 6 9 1 19 -5 21 -11 3 -7 6 -1 6 13 1 16 -6 29 -15 33 -22
8 -13 16 29 26 21 4 39 4 45 -2 7 -7 17 -3 31 11 18 18 32 21 80 20 42 -1 71
4 103 20 24 11 52 21 60 21 9 0 18 5 20 10 2 6 26 12 55 13 28 1 49 6 46 10
-3 4 7 5 21 1 14 -3 39 -2 55 4 17 6 33 6 38 1 9 -9 83 -1 83 10 0 8 80 5 103
-4 9 -4 24 -5 31 -2 10 4 13 1 9 -9 -3 -9 1 -14 12 -14 12 0 16 -6 12 -20 -3
-11 -1 -20 4 -20 5 0 8 -6 6 -12 -2 -12 27 -19 81 -18 12 0 25 -7 28 -15 4 -8
17 -15 29 -15 28 0 41 -16 20 -24 -8 -3 -17 -1 -20 5 -8 11 -25 2 -25 -13 0
-7 13 -8 34 -5 28 4 35 2 39 -14 3 -10 11 -19 17 -19 7 0 10 7 7 14 -5 12 2
14 30 10 23 -3 40 0 45 8 6 10 10 10 18 -2 6 -9 10 -10 10 -3 0 15 -28 43 -43
43 -7 0 -7 3 -2 9 13 11 75 22 75 13 0 -4 11 -9 25 -10 14 -1 25 3 25 8 0 5 7
6 17 3 11 -5 14 -3 8 6 -5 10 -2 12 11 8 21 -7 63 13 62 28 -1 6 6 11 15 13
15 3 16 0 5 -23 -15 -34 -1 -48 43 -42 31 4 32 5 11 12 -17 6 -21 12 -16 29 3
11 10 25 14 29 12 14 80 26 86 16 3 -5 16 -9 29 -9 20 0 23 -5 22 -27 -2 -20
3 -28 18 -31 11 -2 23 -9 26 -14 4 -7 13 -7 25 1 18 10 18 10 -1 11 -17 1 -15
5 14 31 24 22 36 27 41 19 6 -9 9 -9 15 0 9 14 136 10 148 -5 4 -6 11 -4 18 5
8 11 12 12 16 2 2 -6 10 -9 16 -6 7 4 3 -2 -8 -13 -17 -16 -22 -17 -34 -6 -11
12 -16 11 -28 -7 -17 -24 -55 -26 -73 -5 -17 21 -26 19 -26 -5 0 -13 5 -19 13
-16 7 3 13 1 13 -4 0 -4 14 -11 30 -15 34 -7 38 -22 13 -40 -21 -15 -27 -46
-7 -38 17 6 20 -42 4 -52 -6 -4 -8 -10 -5 -15 3 -5 1 -11 -5 -15 -5 -3 -10
-12 -10 -18 0 -7 5 -4 11 6 13 22 44 23 35 1 -3 -9 -6 -20 -6 -25 0 -6 -8 -9
-17 -7 -13 2 -19 -5 -21 -25 -2 -15 -12 -33 -22 -39 -17 -11 -17 -12 3 -29 19
-15 20 -19 7 -34 -7 -9 -15 -26 -15 -38 -1 -11 -12 -27 -23 -35 -12 -8 -22
-25 -22 -37 0 -15 -7 -25 -21 -28 l-20 -6 22 -22 c19 -19 20 -23 5 -31 -9 -5
-16 -16 -16 -23 0 -8 -4 -15 -10 -15 -5 0 -7 -7 -3 -16 5 -13 2 -15 -15 -9
-13 4 -22 2 -22 -4 0 -6 5 -11 11 -11 6 0 3 -7 -6 -16 -9 -10 -30 -17 -46 -16
-16 0 -29 -4 -29 -9 0 -25 -161 8 -193 40 -6 6 -17 11 -23 11 -7 0 -26 11 -42
25 -17 14 -37 25 -45 25 -8 0 -22 10 -30 23 -8 12 -38 46 -66 75 -28 29 -51
57 -51 62 0 6 -6 10 -13 10 -8 0 -20 -19 -27 -42 -7 -24 -24 -55 -38 -69 -20
-23 -22 -30 -12 -49 6 -12 9 -27 7 -35 -3 -7 -1 -17 5 -23 7 -7 3 -12 -11 -17
-15 -4 -21 -15 -21 -36 0 -22 -5 -29 -19 -29 -14 0 -17 6 -13 28 3 15 11 31
18 35 16 9 19 37 5 37 -5 0 -12 -8 -15 -18 -8 -23 -63 -65 -76 -57 -6 4 -13
-2 -17 -12 -12 -31 -30 -43 -67 -43 -19 0 -38 -5 -41 -10 -4 -6 -19 -9 -35 -8
-17 1 -41 -8 -61 -23 -36 -27 -124 -50 -194 -49 -197 1 -361 31 -398 74 -64
73 -76 86 -87 86 -6 0 -10 -10 -8 -22 2 -15 9 -22 20 -20 13 2 17 -3 16 -22
-2 -19 -9 -25 -38 -30 -25 -4 -41 -14 -50 -31 -7 -14 -17 -25 -21 -25 -4 0
-21 -24 -38 -52 -39 -69 -56 -78 -122 -70 -79 9 -140 6 -149 -7 -5 -9 -47 -11
-151 -7 -79 3 -155 7 -169 10 -14 2 -63 9 -110 16 -46 6 -90 16 -97 21 -6 6
-40 12 -75 14 -35 3 -74 7 -88 10 -14 3 -42 8 -63 11 -20 3 -40 10 -43 15 -3
5 -16 9 -29 9 -18 0 -22 -4 -18 -19 5 -22 -24 -32 -72 -25 -29 4 -157 5 -243
1 -24 -1 -48 3 -54 10 -7 9 -18 9 -46 -1 -69 -22 -242 -4 -242 26 0 6 -7 8
-15 4 -8 -3 -14 0 -12 6 1 7 -11 18 -27 26 -23 12 -33 12 -48 3 -15 -9 -23 -9
-34 0 -8 6 -14 8 -14 4 0 -4 -7 -2 -15 5 -9 7 -15 20 -13 29 4 28 -13 63 -28
57 -18 -7 -18 -1 2 19 13 13 14 16 3 14 -25 -4 -126 43 -121 56 4 8 -17 25
-32 25 -4 0 -6 -7 -2 -15 10 -27 -11 -16 -50 27 -21 23 -35 35 -31 25 4 -10 0
-20 -10 -25 -11 -6 -12 -11 -4 -16 6 -4 11 -2 11 3 0 6 7 11 15 11 8 0 15 -7
15 -16 0 -14 -8 -16 -46 -11 -26 2 -50 10 -54 16 -5 9 -14 9 -35 1 -19 -7 -31
-7 -41 1 -7 6 -21 9 -31 8 -10 -1 -31 3 -48 10 -16 6 -36 14 -42 16 -7 2 -13
12 -13 21 0 14 -3 14 -15 4 -13 -11 -20 -9 -43 13 -15 14 -47 35 -72 46 -81
36 -155 166 -148 259 4 48 3 50 -15 40 -13 -7 -17 -7 -13 0 4 6 0 17 -7 24 -8
7 -12 20 -9 30 3 11 -1 18 -10 18 -7 0 -14 9 -14 19 0 11 4 17 8 15 4 -3 8 -1
8 5 0 5 -4 12 -9 16 -5 3 -12 19 -16 35 -4 17 -13 30 -21 30 -19 0 -18 7 6 32
22 24 12 50 -12 31 -9 -7 -18 -4 -30 9 -12 12 -14 18 -5 19 6 0 3 4 -8 9 -11
5 -15 9 -8 9 7 1 10 7 7 15 -3 9 -13 12 -22 9 -13 -4 -12 -2 3 10 14 11 19 25
17 51 -3 41 3 45 27 15 15 -19 20 -20 39 -8 12 8 21 18 21 24 -1 5 -1 17 0 25
1 12 4 12 12 -2 13 -23 30 -23 63 3 14 11 26 15 26 9 0 -18 53 -66 58 -52 2 7
9 12 16 12 8 0 12 10 11 25 -2 14 0 25 4 25 4 0 13 11 19 25 6 14 18 25 27 25
8 0 15 5 15 11 0 5 5 7 10 4 6 -4 7 -12 4 -18z m-1584 -12310 c0 -8 -16 -30
-37 -50 -20 -20 -32 -37 -27 -37 6 0 15 5 22 12 15 15 16 3 2 -23 -6 -10 -23
-25 -39 -33 -30 -16 -47 -52 -27 -60 6 -2 3 -5 -6 -5 -10 -1 -18 3 -18 8 0 5
-10 11 -21 14 -15 4 -20 11 -16 21 4 11 1 16 -11 16 -12 1 -10 4 8 13 24 11
38 47 19 47 -5 0 -9 7 -9 16 0 14 3 14 15 4 13 -11 14 -10 9 4 -7 19 7 21 24
4 17 -17 16 13 0 32 -11 12 -10 12 3 2 9 -6 20 -8 24 -4 5 4 5 2 1 -5 -3 -6
-3 -14 2 -17 11 -7 44 33 37 44 -4 6 5 10 19 10 15 0 26 -6 26 -13z m-220
-469 c0 13 60 17 60 3 0 -4 -12 -6 -26 -3 -23 4 -25 3 -16 -14 8 -14 6 -21 -6
-32 -12 -9 -12 -11 -2 -6 11 5 10 1 -3 -13 -18 -21 -9 -41 13 -28 6 3 10 2 10
-4 0 -5 -6 -12 -12 -14 -10 -4 -9 -8 2 -17 12 -9 10 -10 -12 -6 -22 5 -26 3
-22 -9 4 -8 17 -15 30 -15 14 0 27 -7 30 -15 4 -8 10 -12 16 -9 5 3 2 14 -8
26 -15 15 -16 21 -5 27 8 5 11 17 6 30 -4 12 -2 21 4 21 6 0 12 -6 12 -12 4
-47 10 -85 14 -95 2 -8 -4 -13 -16 -13 -11 0 -17 -4 -14 -10 3 -5 -3 -10 -14
-10 -13 0 -21 8 -23 22 -2 13 -11 24 -21 26 -13 3 -18 -1 -15 -13 1 -9 7 -15
11 -13 11 4 37 -44 30 -55 -2 -4 -9 -5 -14 -2 -5 4 -9 -6 -9 -22 0 -15 -4 -35
-10 -43 -9 -15 -9 -16 -25 35 -10 32 -23 14 -15 -20 7 -31 6 -34 -6 -24 -8 7
-17 9 -20 6 -9 -9 6 -27 23 -27 13 0 13 -3 3 -15 -11 -13 -16 -10 -41 22 -16
20 -25 39 -20 42 5 3 9 26 9 51 0 38 2 62 11 101 0 3 13 11 27 18 l26 11 -23
19 c-16 13 -20 23 -14 37 9 22 9 22 1 51 -5 17 -1 23 21 31 24 8 30 6 40 -12
7 -12 12 -15 13 -8z m890 -1444 c0 -2 -5 -13 -11 -26 -7 -16 -7 -31 0 -48 5
-14 10 -18 10 -10 1 8 9 -1 19 -20 15 -29 15 -36 4 -44 -9 -5 -24 -3 -38 5
-13 7 -27 9 -31 6 -3 -4 -1 -7 5 -7 7 0 12 -4 12 -10 0 -11 -63 -1 -68 12 -6
14 -32 9 -32 -7 0 -8 6 -12 14 -9 7 3 21 -2 29 -11 9 -8 20 -15 24 -14 24 4
33 -4 31 -26 -2 -23 -18 -37 -18 -16 0 5 -9 11 -20 14 -11 3 -20 1 -20 -4 0
-5 -4 -9 -10 -9 -5 0 -10 11 -10 25 0 30 -4 31 -37 5 -14 -11 -29 -17 -34 -14
-13 7 -1 24 17 24 9 0 14 11 14 30 0 17 3 29 8 28 15 -3 42 15 42 28 0 8 7 14
15 14 8 0 15 7 15 15 0 8 6 15 14 15 8 0 17 13 21 28 3 16 12 29 20 29 8 0 15
-2 15 -3z"/>
<path d="M33935 22380 c7 -12 -20 -42 -29 -33 -3 4 -6 1 -6 -6 0 -18 71 -131
81 -131 14 0 10 -40 -3 -40 -7 0 -5 -5 5 -11 9 -6 27 -7 38 -4 11 4 26 1 34
-5 35 -29 7 62 -29 95 -26 24 -45 64 -33 68 7 2 1 13 -16 29 -15 14 -27 30
-27 37 0 6 -5 11 -11 11 -5 0 -7 -5 -4 -10z"/>
<path d="M26550 19030 c8 -14 8 -20 0 -20 -6 0 -8 -4 -5 -10 9 -14 45 -13 45
1 0 7 12 0 26 -14 25 -25 43 -26 71 -5 7 6 17 7 23 3 6 -4 17 -2 25 5 10 9 16
7 23 -7 6 -10 21 -19 34 -20 13 -1 35 -5 51 -9 35 -8 37 14 3 53 -20 23 -26
25 -39 14 -11 -8 -21 -9 -34 -3 -10 5 -39 10 -65 10 -27 1 -57 6 -67 12 -11 5
-38 10 -61 10 -38 0 -40 -2 -30 -20z"/>
<path d="M25312 748 c2 -20 0 -34 -4 -32 -4 3 -7 -11 -6 -30 1 -19 5 -33 10
-30 4 3 8 0 8 -5 0 -6 -5 -11 -11 -11 -5 0 -7 -4 -4 -10 3 -5 1 -10 -4 -10 -6
0 -11 5 -11 11 0 23 -18 -3 -24 -35 -5 -27 -10 -33 -25 -29 -14 3 -20 -2 -25
-23 -6 -22 -9 -25 -17 -13 -5 7 -9 10 -9 4 0 -15 13 -30 28 -31 37 -3 41 -5
36 -19 -4 -8 -13 -15 -21 -15 -12 0 -14 -8 -10 -35 3 -19 2 -35 -3 -35 -5 0
-16 -3 -26 -7 -12 -4 -15 -3 -10 5 9 15 -4 15 -39 2 -15 -6 -24 -6 -20 -1 3 5
-9 12 -26 16 -21 5 -29 11 -25 21 3 8 9 21 12 29 3 8 1 15 -5 15 -6 0 -8 6 -5
14 3 8 -3 19 -14 25 -17 9 -19 7 -14 -14 3 -16 0 -25 -8 -25 -10 0 -10 -3 0
-15 7 -9 9 -22 4 -32 -4 -10 -8 -30 -9 -45 0 -21 4 -28 20 -29 17 -1 17 -2 3
-6 -24 -6 -34 -51 -18 -77 10 -15 10 -21 1 -24 -8 -3 -7 -8 4 -16 14 -10 14
-12 -6 -13 -12 -1 -28 6 -35 15 -9 11 -13 12 -14 5 0 -7 -4 -13 -9 -13 -6 0
-13 21 -17 47 -6 39 -9 44 -18 30 -17 -22 -39 -6 -31 24 3 13 1 31 -5 39 -8
13 -13 13 -30 2 -12 -7 -31 -10 -43 -6 -20 6 -20 5 -8 -10 13 -15 12 -18 -7
-23 -12 -3 -22 -9 -22 -13 0 -10 26 -7 36 3 4 4 13 7 20 7 9 0 12 -17 10 -63
-5 -88 -4 -87 -21 -81 -11 5 -15 -1 -15 -23 0 -16 -3 -33 -7 -37 -4 -4 -9 -18
-10 -31 -3 -19 1 -25 16 -25 21 0 33 22 25 45 -4 10 0 15 15 15 12 0 21 6 21
15 0 22 28 18 40 -5 6 -12 8 -30 5 -40 -4 -12 -2 -20 4 -20 6 0 11 8 11 17 0
12 3 14 11 6 15 -15 -20 -64 -42 -57 -9 2 -16 -2 -16 -10 0 -7 10 -13 21 -13
12 0 96 -3 189 -7 l167 -8 1 23 c2 43 8 73 28 159 16 65 22 133 27 295 3 116
7 215 9 222 2 6 0 13 -5 15 -5 2 -11 13 -13 25 -6 39 -20 40 -15 1z"/>
</g>
</svg>
